<?xml version="1.0" standalone="no"?>
<!DOCTYPE svg PUBLIC "-//W3C//DTD SVG 20010904//EN"
 "http://www.w3.org/TR/2001/REC-SVG-20010904/DTD/svg10.dtd">
<svg version="1.0" xmlns="http://www.w3.org/2000/svg"
 width="1920.000000pt" height="1080.000000pt" viewBox="0 0 1920.000000 1080.000000"
 preserveAspectRatio="xMidYMid meet">

<g transform="translate(0.000000,1080.000000) scale(0.100000,-0.100000)"
fill="#000000" stroke="none">
<path d="M0 5400 l0 -5400 734 0 c636 0 739 2 777 15 163 58 468 197 697 319
147 78 323 172 392 208 69 36 289 135 490 218 325 136 401 164 695 252 182 54
465 133 630 174 332 83 722 196 1065 309 196 65 368 110 490 129 76 11 150 29
260 61 63 19 159 47 214 63 l99 29 48 -24 c27 -12 52 -23 55 -23 3 0 27 -17
52 -37 159 -127 311 -335 377 -517 51 -141 105 -278 121 -309 8 -15 12 -32 9
-37 -9 -14 -35 -12 -35 3 0 6 -5 4 -11 -5 -5 -10 -21 -18 -34 -18 -13 0 -27
-5 -30 -11 -4 -6 -13 -8 -21 -5 -8 3 -14 2 -14 -3 0 -11 -79 -43 -90 -36 -4 3
-10 2 -12 -3 -6 -14 -77 -51 -83 -42 -6 9 -55 -11 -55 -22 0 -5 -11 -8 -25 -8
-15 0 -25 -6 -25 -14 0 -13 -21 -28 -45 -31 -21 -4 -63 -24 -70 -35 -3 -5 -10
-8 -15 -5 -4 3 -11 -2 -14 -11 -3 -9 -12 -14 -19 -11 -6 2 -32 -5 -57 -16 -73
-31 -95 -40 -100 -42 -3 -1 -13 -5 -23 -10 -10 -4 -20 -5 -23 -2 -9 9 -33 -17
-26 -27 3 -5 0 -6 -6 -3 -10 7 -62 -46 -62 -64 0 -17 -20 -9 -20 9 -1 10 -8 3
-18 -18 -9 -19 -23 -35 -29 -35 -7 0 -25 -14 -40 -30 -27 -29 -197 -155 -209
-155 -4 0 -29 -17 -57 -38 -29 -20 -56 -37 -61 -37 -5 0 -14 -9 -20 -19 -6
-11 -26 -35 -45 -53 l-34 -33 4387 0 c4383 0 4387 0 4381 20 -5 14 -2 20 9 20
9 0 16 5 16 11 0 7 -11 8 -30 4 -19 -4 -30 -3 -30 4 0 6 6 11 13 11 7 1 4 7
-7 15 -10 8 -23 12 -27 9 -9 -5 -10 1 -13 36 -2 22 -29 60 -42 60 -7 0 -15 7
-18 16 -3 8 -10 12 -16 9 -5 -3 -10 0 -10 8 0 24 -63 98 -74 87 -17 -17 -50
-11 -64 10 -11 18 -10 22 10 30 23 9 23 9 -3 9 -24 1 -63 35 -65 56 -1 18 -33
83 -45 90 -5 4 -8 13 -5 20 2 7 -1 16 -8 18 -8 3 -16 22 -20 41 -4 21 -13 36
-21 36 -19 0 -29 18 -17 33 6 7 11 17 11 22 1 6 5 10 10 10 5 0 13 3 17 7 4 5
0 8 -10 8 -10 0 -24 -7 -32 -15 -20 -19 -34 -19 -34 0 0 8 -7 15 -15 15 -17 0
-20 25 -5 35 5 3 10 14 10 23 0 15 -2 15 -10 2 -15 -25 -35 5 -34 51 1 29 -2
37 -9 30 -6 -6 -19 -11 -29 -11 -13 0 -18 8 -18 29 0 17 5 33 10 36 15 9 12
25 -5 25 -8 0 -15 -4 -15 -10 0 -5 -7 -10 -15 -10 -9 0 -15 9 -15 21 0 15 -5
19 -16 15 -12 -4 -14 -1 -9 13 3 11 1 22 -5 26 -24 15 82 60 165 70 22 3 91
12 154 20 147 20 324 12 496 -22 110 -21 145 -33 229 -76 94 -49 103 -57 164
-137 35 -47 78 -102 95 -124 18 -21 34 -43 36 -48 2 -6 11 -18 20 -27 15 -16
57 -72 195 -259 27 -37 77 -101 110 -144 34 -42 88 -110 121 -152 l60 -76
1748 0 1747 0 0 5400 0 5400 -9600 0 -9600 0 0 -5400z m10345 5165 l0 -210
-195 0 -195 0 -3 199 c-2 109 -1 205 2 213 5 11 42 13 198 11 l193 -3 0 -210z
m-895 165 c0 -5 -9 -10 -20 -10 -11 0 -20 -7 -20 -15 0 -8 6 -12 13 -9 19 7
39 -20 35 -48 -2 -19 -9 -23 -37 -23 -20 0 -36 6 -39 14 -3 10 2 12 22 7 20
-5 26 -3 26 9 0 11 -6 14 -25 9 -24 -6 -25 -4 -25 35 0 40 1 41 35 41 19 0 35
-4 35 -10z m103 -7 c3 -10 4 -36 3 -58 -1 -39 -2 -40 -36 -40 -34 0 -35 1 -38
44 -2 24 -1 50 2 57 8 21 64 18 69 -3z m203 -5 c5 -17 0 -27 -20 -43 -33 -26
-33 -35 -1 -35 14 0 25 -4 25 -10 0 -5 -18 -10 -40 -10 -36 0 -40 2 -40 25 0
17 8 29 25 37 24 11 35 38 15 38 -5 0 -10 -4 -10 -10 0 -5 -7 -10 -15 -10 -15
0 -21 21 -8 33 3 4 19 7 34 7 20 0 30 -6 35 -22z m94 12 c0 -5 -9 -10 -20 -10
-11 0 -20 -7 -20 -15 0 -8 6 -12 13 -9 19 7 39 -20 35 -48 -2 -19 -9 -23 -37
-23 -20 0 -36 6 -39 14 -3 10 2 12 22 7 20 -5 26 -3 26 9 0 11 -6 14 -25 9
-24 -6 -25 -4 -25 35 0 40 1 41 35 41 19 0 35 -4 35 -10z m-770 -120 c0 -93
-1 -100 -20 -100 -18 0 -20 7 -20 80 l0 80 -25 -6 c-19 -5 -25 -2 -25 9 0 20
27 36 63 37 l27 0 0 -100z m85 23 c9 -29 20 -53 25 -53 16 0 2 -61 -19 -79
-32 -28 -25 -49 13 -42 5 1 6 -5 3 -12 -3 -8 -1 -19 5 -25 6 -6 1 -9 -15 -9
-19 0 -23 4 -20 18 3 11 0 19 -6 19 -6 0 -11 -8 -11 -18 0 -13 -9 -18 -30 -20
-26 -2 -30 1 -30 23 0 29 5 31 27 10 22 -23 27 -11 9 23 -16 31 -12 77 4 51 5
-6 15 -9 24 -6 21 8 21 67 1 133 -17 58 -18 61 -6 49 5 -6 16 -34 26 -62z
m465 51 c0 -17 -22 -14 -28 4 -2 7 3 12 12 12 9 0 16 -7 16 -16z m-676 -66
c-11 -66 -5 -108 16 -108 5 0 12 9 15 20 4 11 11 18 16 15 15 -10 10 -49 -11
-75 -11 -14 -20 -29 -19 -35 0 -5 4 -2 10 8 15 26 29 21 28 -10 0 -24 -2 -25
-8 -9 -7 18 -8 18 -14 3 -9 -23 -27 -21 -27 3 0 11 -5 20 -11 20 -6 0 -8 -8
-5 -18 4 -13 1 -19 -9 -19 -8 0 -15 5 -15 10 0 6 -5 5 -12 -1 -10 -8 -13 -4
-13 14 0 13 3 24 8 24 4 0 7 -6 7 -12 0 -10 2 -10 9 0 4 8 11 13 15 13 32 -4
37 24 6 34 -11 3 -21 13 -21 21 -5 49 -4 60 5 66 8 5 12 24 15 66 1 6 6 12 12
12 7 0 8 -14 3 -42z m676 17 c0 -8 -7 -15 -15 -15 -8 0 -15 7 -15 15 0 8 7 15
15 15 8 0 15 -7 15 -15z m-9340 -90 c0 -9 -9 -15 -25 -15 -23 0 -25 -4 -25
-45 0 -33 -4 -45 -15 -45 -11 0 -15 13 -15 53 0 30 3 57 7 60 3 4 21 7 40 7
23 0 33 -5 33 -15z m74 -21 c11 -4 16 -19 16 -45 0 -38 -1 -39 -34 -39 -20 0
-36 6 -39 14 -6 16 11 36 30 36 7 0 13 4 13 9 0 5 -9 7 -20 4 -22 -6 -28 12
-7 20 18 8 23 8 41 1z m115 -8 c7 -8 11 -27 9 -43 -2 -22 -9 -29 -30 -31 -16
-2 -28 -9 -28 -18 0 -8 -4 -14 -10 -14 -5 0 -10 24 -10 54 0 49 2 55 23 59 12
2 25 5 28 6 4 0 12 -5 18 -13z m95 8 c11 -4 16 -19 16 -45 0 -38 -1 -39 -34
-39 -20 0 -36 6 -39 14 -6 16 11 36 30 36 7 0 13 4 13 9 0 5 -9 7 -20 4 -22
-6 -28 12 -7 20 18 8 23 8 41 1z m108 -18 c5 -8 8 -7 8 2 0 6 7 12 16 12 13 0
14 -3 5 -14 -10 -11 -10 -20 -1 -36 15 -28 2 -41 -16 -16 -12 17 -14 18 -14 3
0 -19 -30 -24 -31 -4 0 10 -2 10 -6 0 -2 -7 -11 -13 -19 -13 -11 0 -11 5 -2
25 8 18 8 28 -1 39 -10 12 -7 15 21 14 18 -1 36 -6 40 -12z m8792 -2 c9 -23 7
-77 -3 -92 -5 -8 -21 -12 -37 -10 -26 3 -29 7 -32 47 -2 24 -1 50 2 57 7 19
62 18 70 -2z m340 0 c9 -23 7 -77 -3 -92 -5 -8 -21 -12 -37 -10 -26 3 -29 7
-32 47 -2 24 -1 50 2 57 7 19 62 18 70 -2z m-751 -63 c6 -24 0 -31 -25 -31
-13 0 -18 7 -18 25 0 31 35 35 43 6z m-103 -61 c0 -5 -2 -10 -4 -10 -3 0 -8 5
-11 10 -3 6 -1 10 4 10 6 0 11 -4 11 -10z m200 0 c0 -5 -5 -10 -11 -10 -5 0
-7 5 -4 10 3 6 8 10 11 10 2 0 4 -4 4 -10z m-7946 -1116 c9 -8 20 -13 25 -10
5 3 12 -1 15 -10 12 -31 6 -51 -19 -62 -17 -8 -25 -8 -25 -1 0 6 -8 9 -17 8
-41 -4 -51 2 -57 32 -3 18 -1 38 5 45 15 19 54 18 73 -2z m-746 -449 c0 -23
-2 -25 -5 -7 -2 12 -9 22 -14 22 -5 0 -10 -10 -10 -22 l-2 -23 -4 22 c-6 30
16 71 28 52 5 -8 8 -27 7 -44z m1700 -85 l33 -40 -33 6 c-84 14 -80 11 -63 44
9 17 19 30 23 30 4 0 22 -18 40 -40z m11912 -294 c0 -3 -4 -8 -10 -11 -5 -3
-10 -1 -10 4 0 6 5 11 10 11 6 0 10 -2 10 -4z m124 -35 c3 -5 -1 -12 -10 -15
-20 -8 -29 -1 -19 13 8 13 22 14 29 2z m32 -17 c-3 -8 1 -14 9 -14 8 0 15 -5
15 -11 0 -5 -4 -7 -10 -4 -6 4 -8 -11 -4 -39 5 -43 3 -46 -18 -46 l-23 -1 24
-13 24 -13 -29 -6 c-16 -3 -35 -1 -41 5 -9 7 -13 7 -13 -1 0 -6 -10 -11 -21
-11 -17 0 -19 3 -10 13 6 8 8 17 4 20 -3 4 -1 7 5 7 7 0 12 6 12 13 0 7 9 19
20 27 25 18 26 31 3 24 -14 -5 -15 -4 -4 4 9 7 23 7 38 1 17 -6 22 -6 17 2
-12 20 -15 71 -3 63 6 -3 8 -12 5 -20z m-76 -35 c0 -11 -4 -18 -10 -14 -5 3
-7 12 -3 20 7 21 13 19 13 -6z m247 5 c-3 -3 -12 -4 -19 -1 -8 3 -5 6 6 6 11
1 17 -2 13 -5z m-490 -10 c-3 -3 -12 -4 -19 -1 -8 3 -5 6 6 6 11 1 17 -2 13
-5z m190 -10 c0 -7 -4 -11 -9 -8 -5 3 -15 1 -22 -5 -10 -9 -15 -8 -19 3 -7 18
-4 21 26 22 14 1 24 -4 24 -12z m290 0 c-3 -3 -2 -17 3 -30 8 -20 6 -24 -9
-24 -11 0 -21 -6 -24 -12 -2 -7 -8 -9 -13 -5 -5 4 -4 11 1 15 6 4 16 19 22 35
7 15 16 27 19 27 4 0 5 -3 1 -6z m-97 -14 c0 -5 -7 -7 -15 -4 -8 4 -15 8 -15
10 0 2 7 4 15 4 8 0 15 -4 15 -10z m-375 -10 c-3 -5 -1 -12 5 -15 6 -4 9 -1 8
6 -2 6 3 14 11 17 10 3 12 -1 8 -18 -4 -17 -3 -20 6 -11 14 14 27 14 27 0 0
-5 -4 -8 -9 -5 -5 3 -12 -2 -15 -11 -4 -9 -1 -20 6 -25 10 -6 10 -8 1 -8 -7 0
-13 -4 -13 -9 0 -14 43 -7 48 8 3 8 1 11 -4 8 -5 -2 -15 2 -22 9 -12 13 -10
14 14 8 17 -4 25 -3 21 3 -8 13 19 50 30 40 4 -5 0 -13 -9 -18 -10 -5 -15 -16
-12 -24 4 -8 10 -12 15 -9 5 3 6 10 3 16 -4 7 -2 8 5 4 7 -5 20 1 30 13 10 11
21 18 24 14 6 -5 -20 -28 -87 -77 -14 -10 -25 -26 -24 -35 2 -9 -4 -16 -12
-16 -9 0 -14 7 -12 19 3 18 2 18 -14 5 -16 -13 -17 -12 -12 9 5 19 4 21 -8 11
-8 -7 -14 -7 -14 -1 0 22 -31 21 -52 -3 -19 -21 -23 -23 -41 -10 -10 7 -26 11
-33 8 -8 -3 -14 0 -14 6 0 10 37 24 56 20 22 -4 32 3 36 26 3 14 1 25 -6 25
-6 0 -4 6 5 13 19 14 62 20 54 7z m365 -44 c0 -2 -7 -7 -16 -10 -8 -3 -12 -2
-9 4 6 10 25 14 25 6z m164 -10 c-3 -8 -12 -12 -20 -9 -17 6 -9 23 11 23 8 0
12 -6 9 -14z m200 -11 c14 -13 20 -27 15 -30 -5 -4 -9 -1 -9 4 0 6 -9 11 -19
11 -22 0 -35 15 -26 30 9 14 11 13 39 -15z m-68 0 c-3 -8 -2 -15 3 -15 9 0 8
-37 -2 -46 -4 -4 -7 1 -7 12 0 17 -3 16 -20 -6 -24 -31 -28 -6 -4 28 8 12 12
22 7 22 -4 0 -1 5 7 10 20 13 23 12 16 -5z m-287 -16 c-16 -10 -23 -4 -14 10
3 6 11 8 17 5 6 -4 5 -9 -3 -15z m116 1 c3 -5 1 -10 -4 -10 -6 0 -11 5 -11 10
0 6 2 10 4 10 3 0 8 -4 11 -10z m72 -30 c0 -28 -4 -40 -14 -40 -10 0 -12 -6
-8 -20 5 -14 2 -18 -7 -15 -8 3 -27 -6 -44 -20 -16 -14 -35 -23 -42 -20 -8 3
-20 5 -28 5 -8 0 -14 5 -14 10 0 6 7 10 16 10 8 0 13 4 10 9 -3 5 9 14 27 22
17 7 40 21 50 30 10 11 24 16 35 12 9 -3 4 6 -13 22 -27 25 -28 27 -8 22 13
-3 26 -1 29 4 9 16 11 10 11 -31z m-323 4 c3 -9 1 -12 -4 -9 -6 3 -13 -1 -17
-10 -4 -13 -14 -15 -37 -11 -22 4 -27 3 -16 -4 12 -8 9 -10 -12 -10 -21 0 -26
4 -21 17 4 11 3 14 -5 9 -8 -4 -10 -2 -6 8 3 8 12 12 20 9 8 -3 14 -1 14 4 0
16 78 13 84 -3z m197 -7 c-10 -9 -11 -8 -5 6 3 10 9 15 12 12 3 -3 0 -11 -7
-18z m-641 5 c0 -5 -7 -9 -15 -9 -8 0 -15 4 -15 9 0 4 7 8 15 8 8 0 15 -4 15
-8z m910 4 c0 -3 -4 -8 -10 -11 -5 -3 -10 -1 -10 4 0 6 5 11 10 11 6 0 10 -2
10 -4z m-887 -33 c-7 -3 -13 -10 -13 -16 0 -15 -93 -16 -100 -2 -3 5 9 12 25
15 37 7 104 9 88 3z m92 -34 c5 -15 15 -18 56 -17 27 0 49 5 49 10 0 5 -5 6
-12 2 -7 -4 -8 -3 -4 4 11 18 26 14 26 -7 0 -21 -32 -37 -51 -25 -8 4 -9 3 -5
-4 4 -7 2 -12 -3 -12 -6 0 -11 -4 -11 -10 0 -5 7 -10 15 -10 8 0 15 -5 15 -11
0 -6 7 -8 16 -5 14 5 15 4 4 -9 -14 -17 -8 -31 9 -20 6 3 11 22 11 41 0 23 5
34 15 34 11 0 12 -5 5 -26 -13 -33 -13 -74 0 -74 6 0 10 5 10 10 0 7 6 7 18 1
20 -10 52 8 52 30 0 9 3 10 10 3 7 -7 6 -19 -3 -37 -8 -15 -17 -24 -20 -20 -4
3 -7 -6 -7 -20 0 -22 5 -27 24 -27 13 0 26 -7 30 -15 4 -12 0 -14 -19 -11 -15
3 -23 1 -20 -5 4 -5 10 -7 15 -4 5 3 11 1 15 -5 3 -5 1 -10 -5 -10 -6 0 -8 -5
-4 -11 5 -8 -1 -10 -21 -7 -21 4 -29 1 -32 -13 -3 -11 -9 -19 -14 -19 -5 0 -9
-7 -9 -15 0 -18 12 -19 28 -3 9 9 12 7 12 -9 0 -16 -7 -23 -27 -25 -24 -3 -27
-8 -28 -41 -2 -42 9 -55 30 -37 12 10 15 9 15 -4 0 -13 -11 -16 -57 -15 -46 0
-53 2 -35 9 22 9 22 11 8 39 -15 29 -40 41 -87 41 -18 0 -29 8 -37 25 -6 14
-19 25 -27 25 -9 0 -13 5 -10 10 3 6 1 10 -6 10 -20 0 3 17 33 24 17 4 28 2
31 -7 3 -9 7 -9 19 1 9 7 20 11 24 10 13 -4 55 28 47 35 -3 4 -2 7 3 7 5 0 9
18 9 40 l1 40 -41 -7 c-53 -8 -85 -20 -85 -33 0 -5 11 -10 24 -10 14 0 27 -3
29 -7 3 -5 -11 -7 -31 -7 -21 1 -54 2 -74 3 -24 1 -38 6 -38 14 0 9 -12 13
-35 12 -20 -1 -38 2 -41 7 -7 11 -44 -25 -44 -42 0 -5 -4 -10 -9 -10 -14 0 -1
73 16 90 9 8 13 10 9 3 -4 -7 3 -15 16 -19 23 -8 31 -9 76 -12 13 -1 22 -9 23
-19 0 -15 3 -14 11 4 8 17 17 21 34 17 15 -4 24 -2 24 5 0 6 7 11 15 11 17 0
39 36 30 50 -12 19 -35 10 -35 -12 0 -20 -5 -23 -38 -22 -86 2 -102 4 -102 13
0 4 11 6 25 3 21 -4 25 -1 25 22 0 17 -4 24 -13 20 -8 -3 -20 2 -27 11 -12 15
-10 16 24 10 28 -6 41 -3 57 11 14 13 22 15 27 7 5 -7 13 -9 21 -3 12 7 12 12
-2 33 -9 14 -13 27 -10 31 9 8 31 -12 38 -35z m75 27 c0 -22 -19 -30 -26 -11
-4 9 -13 14 -20 11 -8 -3 -14 -1 -14 4 0 6 14 10 30 10 19 0 30 -5 30 -14z
m390 4 c-8 -5 -19 -10 -25 -10 -5 0 -3 5 5 10 8 5 20 10 25 10 6 0 3 -5 -5
-10z m265 -28 c-3 -3 -11 0 -18 7 -9 10 -8 11 6 5 10 -3 15 -9 12 -12z m-484
-15 c-10 -9 -11 -8 -5 6 3 10 9 15 12 12 3 -3 0 -11 -7 -18z m519 9 c0 -2 -7
-7 -16 -10 -8 -3 -12 -2 -9 4 6 10 25 14 25 6z m-923 -12 c-3 -3 -12 -4 -19
-1 -8 3 -5 6 6 6 11 1 17 -2 13 -5z m973 -13 c0 -5 -10 -11 -22 -14 -22 -6
-22 -6 -4 8 23 17 26 18 26 6z m-330 -15 c0 -3 -4 -8 -10 -11 -5 -3 -10 -1
-10 4 0 6 5 11 10 11 6 0 10 -2 10 -4z m185 -30 c10 -10 11 -16 2 -25 -14 -14
-47 -15 -47 -1 0 5 6 7 14 4 11 -4 13 0 9 15 -6 24 2 27 22 7z m-421 -12 c3
-8 2 -12 -4 -9 -6 3 -10 10 -10 16 0 14 7 11 14 -7z m-4264 -4 c0 -5 -2 -10
-4 -10 -3 0 -8 5 -11 10 -3 6 -1 10 4 10 6 0 11 -4 11 -10z m4513 -5 c4 -8 2
-17 -3 -20 -6 -4 -10 0 -11 7 0 7 -4 4 -8 -7 -7 -17 -8 -17 -13 8 -4 21 -1 27
12 27 10 0 20 -7 23 -15z m-4623 -67 c0 -9 5 -20 10 -23 14 -9 12 39 -2 53 -9
9 -7 12 9 12 22 0 46 -22 49 -47 4 -28 13 -43 26 -42 10 0 10 2 1 6 -18 7 -16
33 3 33 8 0 13 4 9 9 -3 5 -1 12 5 16 5 3 10 -2 10 -12 0 -15 2 -16 10 -3 5 8
10 11 10 6 0 -5 9 -1 20 9 20 18 21 18 38 0 9 -10 11 -15 5 -11 -9 5 -13 0
-13 -12 0 -27 9 -32 36 -22 14 6 26 6 29 0 4 -6 0 -10 -8 -10 -8 0 -20 -7 -27
-15 -10 -13 -14 -12 -28 2 -12 12 -17 12 -20 3 -3 -7 -12 -20 -22 -30 -10 -10
-19 -23 -22 -30 -2 -8 -12 -10 -27 -5 -12 4 -20 9 -17 13 3 3 -3 12 -15 20
-11 8 -18 19 -16 26 3 6 -7 11 -22 12 -24 1 -26 -2 -23 -33 2 -18 9 -33 14
-33 6 0 8 7 4 15 -9 24 11 17 38 -12 l26 -28 -25 -13 c-25 -13 -34 -32 -15
-32 6 0 10 -9 10 -20 0 -10 8 -24 18 -29 9 -6 13 -10 7 -10 -15 -1 -50 31 -70
61 -9 15 -21 25 -26 22 -5 -3 -9 4 -9 15 0 16 -6 21 -25 21 -26 0 -34 15 -12
23 7 3 4 6 -6 6 -14 1 -17 6 -12 21 4 12 1 28 -6 37 -11 13 -10 17 4 28 9 7
17 17 17 24 0 6 5 11 11 11 5 0 7 5 3 12 -4 6 5 3 19 -8 15 -10 27 -27 27 -36z
m4530 42 c0 -5 -7 -10 -15 -10 -8 0 -15 5 -15 10 0 6 7 10 15 10 8 0 15 -4 15
-10z m-580 -10 c0 -5 -7 -10 -16 -10 -8 0 -12 5 -9 10 3 6 10 10 16 10 5 0 9
-4 9 -10z m-13334 -22 c27 -26 32 -58 9 -58 -8 0 -15 5 -15 10 0 6 -7 10 -15
10 -27 0 -16 -28 15 -39 25 -8 30 -15 30 -42 0 -19 -9 -41 -22 -55 -26 -27
-38 -30 -38 -10 0 8 -7 16 -15 20 -8 3 -15 15 -15 26 0 11 7 20 15 20 8 0 15
-4 15 -10 0 -5 7 -10 15 -10 27 0 16 31 -15 41 -25 9 -30 16 -30 45 0 22 6 37
15 40 8 4 15 12 15 20 0 20 8 18 36 -8z m764 -88 c0 -81 -3 -110 -12 -111 -19
-1 -96 -1 -155 0 l-53 1 0 103 c0 57 3 107 7 110 3 4 53 7 110 7 l103 0 0
-110z m13198 69 c-3 -8 -7 -3 -11 10 -4 17 -3 21 5 13 5 -5 8 -16 6 -23z m-31
1 c2 -25 -15 -36 -24 -15 -5 13 4 27 22 35 1 0 1 -9 2 -20z m-13765 -50 c12
-87 6 -100 -46 -100 -52 0 -57 9 -50 82 8 78 9 80 51 76 38 -3 38 -3 45 -58z
m142 44 c8 -20 8 -108 0 -128 -4 -11 -19 -16 -49 -16 -49 0 -55 8 -55 80 0 72
6 80 55 80 30 0 45 -5 49 -16z m140 0 c8 -20 8 -108 0 -128 -4 -11 -19 -16
-49 -16 -49 0 -55 8 -55 80 0 72 6 80 55 80 30 0 45 -5 49 -16z m13706 12 c0
-2 -8 -10 -17 -17 -16 -13 -17 -12 -4 4 13 16 21 21 21 13z m-263 -12 c-3 -3
-12 -4 -19 -1 -8 3 -5 6 6 6 11 1 17 -2 13 -5z m-2907 -13 c8 -6 19 -7 25 -3
16 11 62 14 47 4 -11 -7 -7 -14 15 -29 48 -33 50 -34 49 -10 -2 31 26 28 30
-4 2 -23 -3 -28 -37 -38 -31 -9 -39 -16 -38 -34 1 -17 2 -18 6 -4 2 9 9 17 14
17 11 0 12 -30 2 -31 -5 0 -16 -2 -25 -4 -21 -4 -33 11 -18 20 6 4 8 10 5 15
-3 4 2 10 10 14 8 3 15 13 15 22 0 14 -3 14 -15 4 -13 -11 -14 -10 -9 3 5 14
2 15 -22 8 -50 -16 -60 -21 -33 -18 17 2 26 -1 26 -10 0 -8 -7 -11 -15 -8 -11
4 -13 0 -9 -17 6 -23 6 -23 -9 -3 -9 11 -19 27 -24 35 -7 11 -13 12 -34 2 -17
-7 -26 -8 -26 -1 0 6 -4 7 -10 4 -5 -3 -10 -12 -10 -20 0 -18 31 -49 39 -38
14 20 35 7 37 -24 1 -27 -1 -31 -19 -27 -11 2 -25 9 -31 15 -8 9 -6 10 7 6 10
-4 16 -3 12 3 -3 5 -20 7 -38 4 -22 -4 -28 -3 -19 4 11 7 10 11 -5 16 -12 5
-23 1 -33 -11 -8 -10 -24 -17 -34 -15 -14 3 -18 -1 -14 -15 4 -14 -4 -23 -32
-37 -28 -14 -36 -23 -33 -37 3 -10 9 -19 13 -19 5 0 16 -3 26 -7 13 -5 16 -3
12 9 -4 8 2 22 13 31 16 14 22 14 44 3 26 -14 71 -56 60 -56 -3 0 -3 -5 0 -10
4 -7 13 -7 25 0 14 8 19 19 16 40 -4 33 7 38 31 15 9 -10 12 -22 7 -33 -4 -9
-8 -22 -9 -28 0 -6 -9 -19 -19 -29 -14 -14 -22 -16 -35 -8 -10 6 -25 7 -40 1
-15 -5 -28 -4 -36 2 -9 7 -16 6 -25 -5 -16 -19 -31 -19 -24 0 4 8 1 15 -5 15
-6 0 -11 -6 -12 -12 0 -7 -4 -3 -9 10 -8 19 -26 27 -52 23 -11 -1 -10 17 2 40
6 10 7 19 2 19 -15 0 -34 -28 -27 -40 7 -11 7 -11 -53 -14 -40 -2 -43 -1 -37
21 3 13 1 23 -5 23 -5 0 -10 -7 -10 -17 0 -26 -11 -8 -15 26 -4 28 -1 31 21
31 17 0 37 12 56 34 25 29 36 34 59 29 21 -4 30 -1 35 11 4 11 13 14 29 10 18
-4 27 0 36 18 7 12 12 27 11 32 -2 5 4 6 13 2 19 -7 67 22 59 35 -3 5 0 9 5 9
6 0 20 9 31 20 22 22 37 25 60 11z m2370 -11 c0 -5 -5 -10 -11 -10 -5 0 -7 5
-4 10 3 6 8 10 11 10 2 0 4 -4 4 -10z m800 -6 c0 -2 -11 -4 -25 -4 -14 0 -25
4 -25 9 0 4 11 6 25 3 14 -2 25 -6 25 -8z m-4936 -9 c3 -8 1 -15 -4 -15 -6 0
-10 7 -10 15 0 8 2 15 4 15 2 0 6 -7 10 -15z m493 -17 c-3 -7 -5 -2 -5 12 0
14 2 19 5 13 2 -7 2 -19 0 -25z m29 5 c-10 -10 -19 5 -10 18 6 11 8 11 12 0 2
-7 1 -15 -2 -18z m-446 7 c0 -5 -5 -10 -11 -10 -5 0 -7 5 -4 10 3 6 8 10 11
10 2 0 4 -4 4 -10z m4176 -15 c-18 -18 -47 -20 -40 -2 2 7 16 14 30 15 22 2
24 0 10 -13z m-3879 -27 c-3 -8 -6 -5 -6 6 -1 11 2 17 5 13 3 -3 4 -12 1 -19z
m3684 5 c13 -16 12 -17 -3 -4 -10 7 -18 15 -18 17 0 8 8 3 21 -13z m-4028 -16
c4 3 7 1 7 -6 0 -20 -35 -7 -38 14 -3 19 -2 19 11 3 8 -10 17 -15 20 -11z m42
13 c3 -5 2 -10 -4 -10 -5 0 -13 5 -16 10 -3 6 -2 10 4 10 5 0 13 -4 16 -10z
m285 -17 c0 -8 5 -11 10 -8 13 8 13 -1 -1 -27 -9 -17 -13 -18 -20 -7 -6 10 -9
11 -9 2 0 -8 -14 -13 -35 -13 -19 0 -35 5 -35 11 0 5 4 8 9 5 5 -4 17 -3 26 0
13 6 14 9 3 16 -9 7 -5 8 15 5 19 -3 27 0 27 10 0 8 -4 11 -10 8 -5 -3 -10 1
-10 9 0 10 6 13 15 10 8 -4 15 -13 15 -21z m1610 10 c-1 -14 -27 -43 -33 -37
-7 7 14 44 25 44 5 0 8 -3 8 -7z m2817 -15 c9 -10 11 -18 5 -18 -7 0 -9 -7 -5
-17 5 -11 3 -14 -6 -9 -7 5 -11 16 -8 26 3 13 0 16 -14 13 -12 -4 -19 0 -19 9
0 20 27 18 47 -4z m-3257 8 c0 -3 -4 -8 -10 -11 -5 -3 -10 -1 -10 4 0 6 5 11
10 11 6 0 10 -2 10 -4z m220 -4 c0 -13 -12 -22 -22 -16 -10 6 -1 24 13 24 5 0
9 -4 9 -8z m2937 2 c-3 -3 -12 -4 -19 -1 -8 3 -5 6 6 6 11 1 17 -2 13 -5z
m-590 -26 c-3 -8 -6 -5 -6 6 -1 11 2 17 5 13 3 -3 4 -12 1 -19z m617 7 c-7
-16 -24 -21 -24 -6 0 8 7 13 27 20 1 1 0 -6 -3 -14z m-4647 -17 c-3 -8 -6 -5
-6 6 -1 11 2 17 5 13 3 -3 4 -12 1 -19z m398 -6 c-4 -21 -1 -22 32 -16 29 5
34 4 28 -7 -7 -11 -4 -10 10 1 14 11 19 12 22 3 3 -7 15 -13 27 -13 13 0 23
-6 23 -14 0 -8 -6 -12 -14 -9 -22 9 -47 -5 -35 -20 7 -8 7 -18 2 -27 -5 -8 -7
-17 -4 -21 6 -11 -14 -21 -27 -14 -6 5 -4 12 8 21 10 7 14 14 8 14 -5 0 -3 5
5 10 13 8 12 10 -2 10 -10 0 -18 7 -18 15 0 9 -7 18 -15 21 -8 4 -12 10 -9 15
7 12 -3 11 -26 -1 -24 -13 -48 -4 -55 21 -4 10 -13 19 -21 19 -8 0 -12 4 -9
10 3 5 21 9 40 7 30 -2 34 -5 30 -25z m1035 18 c0 -5 -7 -10 -15 -10 -8 0 -15
5 -15 10 0 6 7 10 15 10 8 0 15 -4 15 -10z m-1516 -8 c3 -5 -1 -9 -9 -9 -8 0
-15 4 -15 9 0 4 4 8 9 8 6 0 12 -4 15 -8z m4680 -36 c2 -26 -1 -36 -11 -36
-11 0 -11 4 -2 21 8 17 8 23 -1 29 -7 4 -9 13 -5 20 10 17 16 7 19 -34z
m-4729 13 c4 -6 13 -8 21 -5 17 7 18 -1 2 -18 -9 -10 -15 -9 -30 6 -10 10 -18
20 -18 23 0 9 19 5 25 -6z m1881 -3 c18 -14 18 -15 -9 -25 -15 -6 -30 -18 -33
-26 -7 -17 -34 -21 -34 -5 0 6 6 9 13 8 7 -2 12 7 11 22 -2 38 20 49 52 26z
m2414 -1 c0 -8 -4 -15 -10 -15 -5 0 -7 7 -4 15 4 8 8 15 10 15 2 0 4 -7 4 -15z
m305 5 c3 -5 -1 -10 -9 -10 -9 0 -16 5 -16 10 0 6 4 10 9 10 6 0 13 -4 16 -10z
m-4145 -10 c0 -5 -4 -10 -10 -10 -5 0 -10 5 -10 10 0 6 5 10 10 10 6 0 10 -4
10 -10z m1550 0 c0 -5 -4 -10 -10 -10 -5 0 -10 5 -10 10 0 6 5 10 10 10 6 0
10 -4 10 -10z m130 -11 c0 12 5 21 10 21 6 0 10 -7 10 -16 0 -8 5 -12 10 -9 6
3 10 2 10 -3 0 -6 -17 -13 -37 -17 -20 -4 -43 -14 -49 -23 -10 -14 -15 -15
-25 -4 -10 9 -10 12 -1 12 7 0 11 4 10 9 -2 5 4 19 12 31 l15 21 18 -22 17
-21 0 21z m670 11 c0 -4 18 -7 40 -6 35 1 38 -1 23 -11 -9 -7 -13 -13 -7 -13
5 0 2 -5 -6 -10 -10 -6 -3 -8 25 -4 32 4 36 3 23 -6 -10 -6 -18 -16 -18 -22 0
-7 5 -6 15 2 8 6 23 9 33 6 11 -4 31 -2 46 3 19 8 25 7 23 -2 -1 -7 8 -11 23
-9 49 5 59 3 80 -18 17 -17 29 -21 56 -15 21 3 34 2 34 -5 0 -5 -5 -10 -12
-10 -6 0 -8 -3 -5 -6 9 -10 -12 -46 -24 -39 -5 4 -9 -3 -9 -14 0 -13 -5 -19
-14 -15 -8 3 -28 -1 -44 -10 -16 -8 -33 -12 -36 -8 -4 3 -11 1 -15 -6 -4 -7
-17 -14 -29 -15 -14 -1 -26 -12 -33 -32 -18 -45 -19 -67 -2 -61 8 3 19 6 24 6
6 0 7 5 4 10 -3 6 -1 10 4 10 6 0 11 -5 11 -11 0 -7 12 -8 33 -4 31 7 31 6 10
-9 -42 -31 -110 -55 -122 -43 -7 7 -12 5 -18 -9 -4 -10 -13 -24 -21 -30 -9 -6
-12 -16 -8 -23 12 -18 46 16 38 37 -5 14 -4 15 10 2 14 -13 14 -16 -1 -27 -15
-11 -15 -12 1 -13 12 0 15 -5 11 -17 -6 -15 -5 -15 16 -1 18 13 26 14 36 5 7
-7 10 -18 7 -26 -4 -10 -1 -12 9 -6 8 4 1 -6 -15 -23 -35 -38 -103 -54 -121
-28 -13 17 -51 23 -40 7 3 -6 -5 -15 -17 -22 -22 -12 -22 -12 -3 -19 15 -6 22
-1 31 19 l11 26 8 -25 c5 -15 4 -25 -3 -28 -6 -2 -9 -9 -6 -16 3 -7 -8 -19
-23 -26 l-28 -14 35 -6 c28 -4 31 -7 16 -13 -15 -6 -16 -10 -6 -22 8 -10 9
-15 2 -15 -6 0 -9 -7 -5 -16 3 -8 12 -13 20 -10 8 3 11 1 8 -4 -3 -6 -17 -10
-31 -10 -14 0 -22 4 -19 10 3 6 1 10 -4 10 -6 0 -11 -6 -11 -13 0 -8 -13 -13
-34 -14 -28 -1 -33 2 -29 16 6 14 4 14 -14 -1 -11 -10 -26 -18 -34 -17 -8 0
-4 4 9 9 12 5 22 14 22 20 0 16 -40 12 -46 -5 -5 -13 -9 -13 -22 -3 -12 10
-16 10 -19 1 -6 -18 -20 -16 -20 2 0 15 5 17 46 19 13 1 26 6 28 12 3 8 -21
12 -73 13 -61 1 -75 -1 -66 -11 8 -10 -3 -13 -54 -13 -46 -1 -64 3 -64 12 0 7
8 13 17 13 9 0 30 4 47 10 17 5 43 12 58 15 27 5 58 29 58 45 0 6 -10 6 -22 1
-15 -5 -32 -3 -48 6 l-25 13 33 0 c28 0 33 4 39 30 3 17 10 33 15 36 4 3 7 0
6 -7 -2 -7 5 -15 15 -17 13 -3 17 3 17 22 0 14 3 25 8 25 4 -1 17 -1 30 0 19
1 22 5 17 21 -4 11 -2 20 4 20 6 0 11 -4 11 -10 0 -5 7 -10 16 -10 9 0 14 6
12 12 -3 7 2 19 9 27 9 8 12 23 8 35 -3 12 -7 35 -8 51 -1 17 -8 36 -17 43
-13 11 -13 11 1 6 22 -7 35 14 15 22 -13 5 -13 10 -4 27 9 18 7 24 -16 44 -26
22 -46 23 -46 2 0 -5 12 -9 28 -9 21 0 24 -2 12 -10 -8 -5 -37 -7 -64 -5 -51
5 -76 15 -37 15 14 0 20 4 15 11 -4 8 1 9 17 5 23 -7 23 -7 5 9 -12 8 -28 12
-39 9 -19 -6 -19 -5 -3 17 22 32 20 40 -9 33 -27 -7 -32 4 -15 37 12 22 32 26
24 4 -9 -21 10 -19 31 5 10 11 22 17 27 14 5 -3 8 2 6 12 -2 13 4 19 20 20 27
2 53 -21 46 -40 -3 -7 2 -13 10 -13 8 0 13 4 10 8 -6 10 34 32 45 24 5 -3 7 4
4 14 -3 12 -12 18 -23 16 -10 -2 -23 2 -29 9 -7 8 -5 12 10 13 10 1 19 -2 19
-7z m1873 1 c12 -2 8 -31 -4 -31 -8 0 -8 -4 1 -14 6 -8 19 -12 28 -9 9 3 14 3
10 -1 -11 -13 -43 -14 -50 -2 -5 8 -8 7 -8 -1 0 -7 -5 -13 -11 -13 -5 0 -7 5
-4 10 3 6 0 10 -7 10 -7 0 -2 10 12 21 l25 21 -27 -5 c-19 -3 -28 0 -28 9 0
11 14 13 63 5z m137 -15 c0 -2 -9 -2 -20 1 -11 3 -20 9 -20 15 0 5 9 4 20 -2
11 -6 20 -12 20 -14z m-4894 -2 c-3 -9 -6 -18 -6 -20 0 -3 -4 -3 -10 1 -11 7
-2 35 12 35 6 0 7 -7 4 -16z m79 -19 c17 1 35 -6 42 -14 7 -9 13 -13 13 -8 0
4 15 0 33 -10 30 -17 31 -18 9 -21 -16 -2 -22 -8 -18 -19 3 -8 6 -18 6 -21 0
-4 4 -1 9 7 7 11 11 10 20 -7 16 -30 -10 -23 -47 13 -54 54 -82 69 -82 45 0
-6 -11 0 -25 14 -14 14 -25 33 -25 43 0 16 2 16 18 -3 11 -13 28 -20 47 -19z
m115 25 c0 -5 -2 -10 -4 -10 -3 0 -8 5 -11 10 -3 6 -1 10 4 10 6 0 11 -4 11
-10z m247 -10 c-5 -31 -17 -37 -15 -7 1 15 6 27 10 27 4 0 7 -9 5 -20z m4748
10 c-3 -5 -12 -10 -18 -10 -7 0 -6 4 3 10 19 12 23 12 15 0z m-4908 -6 c-3 -3
-12 -4 -19 -1 -8 3 -5 6 6 6 11 1 17 -2 13 -5z m205 -3 c-8 -4 -13 -11 -13
-15 3 -24 0 -29 -11 -18 -13 13 5 42 26 42 7 0 6 -4 -2 -9z m1543 -11 c3 -5 0
-7 -8 -4 -8 3 -18 1 -22 -5 -3 -6 -12 -11 -18 -11 -7 0 -3 7 7 15 23 18 33 19
41 5z m75 5 c0 -2 -10 -10 -22 -16 -21 -11 -22 -11 -9 4 13 16 31 23 31 12z
m1030 -16 c0 -6 -4 -7 -10 -4 -5 3 -10 1 -10 -6 0 -7 -3 -10 -6 -6 -10 10 5
39 16 32 5 -3 10 -11 10 -16z m494 6 c3 -9 12 -12 22 -8 13 5 15 2 9 -17 -5
-15 -4 -20 4 -16 6 4 11 5 11 2 0 -3 -18 -16 -41 -29 -22 -14 -36 -26 -29 -29
14 -4 2 -38 -14 -38 -15 0 -19 -47 -4 -56 7 -4 8 -3 4 4 -5 8 1 12 17 12 14 0
27 6 30 14 7 18 44 10 44 -9 0 -7 -7 -14 -16 -14 -49 -3 -60 -7 -64 -23 -3
-10 -1 -18 4 -18 5 0 9 5 9 12 0 6 3 8 7 5 3 -4 12 -2 19 4 8 7 14 6 20 -2 4
-7 3 -10 -2 -7 -5 3 -14 0 -21 -7 -16 -17 9 -29 26 -12 21 21 12 -12 -9 -35
-18 -20 -20 -20 -20 -4 0 16 -2 17 -16 5 -9 -7 -20 -22 -24 -34 -7 -15 -9 -16
-9 -4 -1 9 -12 24 -26 33 -28 18 -24 46 6 46 10 0 19 5 19 11 0 6 -8 8 -19 4
-23 -7 -38 10 -16 19 8 3 15 15 15 27 0 18 -3 19 -14 9 -21 -17 -51 3 -51 34
-1 19 4 26 18 26 10 0 16 4 12 10 -3 5 -13 7 -23 4 -14 -5 -15 -4 -2 5 8 5 11
13 7 17 -4 4 -2 13 4 21 9 10 7 13 -6 13 -28 0 -8 14 38 26 60 16 74 16 81 -1z
m173 9 c-3 -3 -12 -4 -19 -1 -8 3 -5 6 6 6 11 1 17 -2 13 -5z m1043 -9 c-7 -9
-15 -13 -17 -11 -7 7 7 26 19 26 6 0 6 -6 -2 -15z m-4184 -24 c0 -20 -5 -31
-17 -34 -12 -3 -16 0 -12 10 3 8 0 13 -7 11 -7 -2 -15 4 -17 12 -4 12 -3 13 5
1 8 -11 12 -10 21 8 16 30 27 26 27 -8z m2514 25 c0 -3 -4 -8 -10 -11 -5 -3
-10 -1 -10 4 0 6 5 11 10 11 6 0 10 -2 10 -4z m-2650 -27 c0 -5 -4 -9 -10 -9
-5 0 -10 7 -10 16 0 8 5 12 10 9 6 -3 10 -10 10 -16z m4346 6 c-11 -8 -25 -15
-30 -15 -6 0 -2 7 8 15 11 8 25 15 30 15 6 0 2 -7 -8 -15z m-4853 -2 c-7 -2
-19 -2 -25 0 -7 3 -2 5 12 5 14 0 19 -2 13 -5z m352 -13 c8 -24 38 -26 60 -4
13 13 21 14 38 6 l22 -11 -21 0 c-21 -1 -41 -37 -23 -43 5 -2 5 -9 0 -17 -13
-20 -33 -3 -25 21 6 20 5 19 -15 -1 -22 -22 -27 -41 -11 -41 6 0 10 -11 10
-25 0 -16 6 -25 15 -25 8 0 15 -7 15 -17 0 -14 3 -14 22 3 13 11 18 13 12 4
-5 -8 -9 -17 -10 -20 -10 -55 -18 -80 -26 -80 -5 0 -6 -5 -3 -10 10 -15 -5
-54 -16 -43 -6 6 -6 20 0 36 13 33 5 57 -18 57 -10 0 -18 6 -18 14 0 8 8 11
19 8 17 -4 17 -2 3 24 -16 31 -31 37 -54 20 -11 -8 -13 -8 -7 2 5 8 1 12 -11
13 -41 3 -46 5 -51 18 -3 8 0 11 7 7 6 -4 11 -3 11 1 0 5 16 8 36 8 29 -1 37
3 45 22 12 31 11 36 -1 28 -5 -3 -10 -1 -10 6 0 7 -8 9 -21 6 -16 -4 -18 -3
-8 9 9 11 9 17 -1 29 -10 13 -9 15 8 15 12 0 23 -9 27 -20z m4290 10 c-3 -5
-11 -10 -16 -10 -6 0 -7 5 -4 10 3 6 11 10 16 10 6 0 7 -4 4 -10z m-3432 -12
c25 -1 42 -5 37 -8 -5 -3 -7 -14 -6 -25 2 -11 -3 -28 -12 -37 -14 -16 -13 -18
2 -18 9 0 15 -4 12 -9 -4 -5 0 -12 6 -15 10 -3 8 -9 -4 -19 -10 -8 -16 -16
-13 -19 3 -2 -2 -5 -10 -5 -8 0 -15 4 -15 9 0 5 -4 7 -9 3 -5 -3 -12 -1 -16 5
-4 6 -10 8 -15 5 -5 -3 -7 6 -4 19 3 20 -1 25 -26 31 -16 4 -32 11 -35 16 -4
5 1 6 9 3 9 -3 16 -1 16 5 0 6 -5 11 -12 11 -9 0 -9 3 -1 11 6 6 23 12 37 12
33 0 33 3 -1 22 -20 11 -22 14 -7 10 11 -3 41 -6 67 -7z m-652 -12 c-16 -19
-51 -28 -44 -10 2 7 14 15 26 17 12 2 24 5 26 6 2 0 -2 -5 -8 -13z m1539 6 c0
-14 -11 -21 -26 -15 -21 8 -17 23 6 23 11 0 20 -4 20 -8z m1690 -2 c0 -5 -4
-10 -9 -10 -6 0 -13 5 -16 10 -3 6 1 10 9 10 9 0 16 -4 16 -10z m-85 -10 c-3
-5 3 -10 14 -10 12 0 21 5 21 10 0 6 8 5 20 -2 22 -14 24 -62 2 -53 -7 2 -26
-10 -42 -28 -16 -17 -30 -27 -30 -21 0 7 7 15 16 18 8 3 12 10 9 16 -3 5 -1
10 4 10 27 0 7 18 -25 25 -35 6 -36 7 -18 25 20 20 39 27 29 10z m960 1 c9
-16 -9 -20 -23 -5 -10 12 -10 14 2 14 8 0 17 -4 21 -9z m-4722 -25 c-6 -10
-13 -12 -23 -6 -13 8 -12 10 3 10 9 0 17 5 17 12 0 6 3 9 6 5 3 -3 2 -12 -3
-21z m102 14 c3 -5 1 -10 -4 -10 -6 0 -11 5 -11 10 0 6 2 10 4 10 3 0 8 -4 11
-10z m3405 0 c0 -5 -5 -10 -11 -10 -5 0 -7 5 -4 10 3 6 8 10 11 10 2 0 4 -4 4
-10z m-3243 -22 c-3 -8 -6 -5 -6 6 -1 11 2 17 5 13 3 -3 4 -12 1 -19z m1103
18 c0 -2 -7 -7 -16 -10 -8 -3 -12 -2 -9 4 6 10 25 14 25 6z m3176 -9 c4 -4
-14 -7 -39 -7 -26 0 -47 4 -47 8 0 10 76 9 86 -1z m287 -15 c-3 -22 11 -30 21
-13 10 15 44 1 49 -20 3 -10 1 -19 -5 -19 -5 0 -6 -6 -2 -12 5 -9 2 -8 -10 1
-13 11 -14 16 -4 22 18 12 5 11 -27 -1 -19 -7 -24 -7 -19 2 5 8 2 9 -9 5 -10
-3 -24 -4 -32 -1 -11 5 -12 10 -3 24 7 10 16 16 20 14 4 -3 8 -1 8 5 0 5 -6
12 -12 15 -7 3 -4 4 7 3 14 -2 19 -9 18 -25z m207 7 c0 -6 -4 -7 -10 -4 -5 3
-10 11 -10 16 0 6 5 7 10 4 6 -3 10 -11 10 -16z m-4420 -11 c0 -6 -6 -5 -15 2
-8 7 -15 14 -15 16 0 2 7 1 15 -2 8 -4 15 -11 15 -16z m310 12 c-8 -5 -19 -10
-25 -10 -5 0 -3 5 5 10 8 5 20 10 25 10 6 0 3 -5 -5 -10z m180 -13 c10 -4 8
-6 -6 -6 -12 -1 -25 6 -28 15 -5 13 -3 14 6 7 7 -6 20 -13 28 -16z m1080 19
c0 -2 -7 -7 -16 -10 -8 -3 -12 -2 -9 4 6 10 25 14 25 6z m538 -44 c-8 -10 -13
-8 -24 5 -23 31 -17 46 10 26 18 -13 21 -21 14 -31z m-1935 -1 c9 -9 4 -9 -22
0 -26 9 -38 9 -53 0 -15 -9 -20 -8 -25 5 -3 9 0 19 6 24 14 8 75 -10 94 -29z
m1347 30 c0 -5 -11 -8 -25 -8 -14 0 -25 3 -25 8 0 5 11 9 25 9 14 0 25 -4 25
-9z m197 3 c-3 -3 -12 -4 -19 -1 -8 3 -5 6 6 6 11 1 17 -2 13 -5z m2683 -16
c0 -6 -7 -7 -16 -4 -9 3 -21 6 -27 6 -7 0 -7 4 2 9 16 10 41 4 41 -11z m-4970
2 c18 -12 2 -12 -25 0 -13 6 -15 9 -5 9 8 0 22 -4 30 -9z m81 -7 c13 -16 12
-17 -3 -4 -10 7 -18 15 -18 17 0 8 8 3 21 -13z m3991 -5 c-6 -6 -15 -8 -19 -4
-4 4 -1 11 7 16 19 12 27 3 12 -12z m-175 -10 c-3 -8 -6 -5 -6 6 -1 11 2 17 5
13 3 -3 4 -12 1 -19z m-2882 2 c3 -5 -1 -10 -9 -10 -9 0 -16 5 -16 10 0 6 4
10 9 10 6 0 13 -4 16 -10z m85 -5 c4 3 10 -2 13 -10 4 -9 1 -12 -9 -8 -7 3
-14 0 -14 -6 0 -6 -6 -11 -14 -11 -8 0 -16 -7 -20 -15 -3 -8 -1 -15 4 -15 6 0
10 -5 10 -12 0 -9 -3 -9 -12 0 -7 7 -20 12 -29 12 -21 0 -19 21 3 44 12 11 18
12 21 3 2 -7 9 -4 18 11 8 12 15 18 17 12 2 -6 7 -8 12 -5z m310 4 c0 -7 9 -9
21 -6 12 3 18 3 15 0 -3 -4 -1 -12 5 -20 9 -10 7 -13 -8 -13 -10 0 -23 -4 -28
-9 -15 -14 -125 -24 -125 -11 0 9 15 14 23 8 2 -2 12 4 22 12 17 13 18 13 10
0 -7 -13 -6 -13 7 -2 13 10 17 10 21 0 4 -11 7 -11 18 0 11 11 10 14 -8 18
-18 5 -19 9 -10 20 15 16 37 18 37 3z m1957 -2 c9 4 16 -2 20 -16 4 -16 13
-22 32 -21 39 3 51 1 51 -9 0 -5 -16 -12 -36 -15 -28 -6 -34 -11 -30 -24 6
-16 5 -16 -7 0 -9 11 -21 15 -35 11 -12 -3 -28 0 -36 6 -7 6 -22 9 -32 5 -18
-5 -18 -5 -1 9 18 15 18 15 0 20 -12 3 -9 5 10 6 25 1 32 10 27 36 -1 6 4 5
11 -2 6 -6 18 -9 26 -6z m1738 3 c-3 -5 -11 -10 -16 -10 -6 0 -7 5 -4 10 3 6
11 10 16 10 6 0 7 -4 4 -10z m-4862 -13 c3 -8 -1 -14 -9 -14 -15 0 -18 9 -7
20 9 9 10 9 16 -6z m191 -2 c-4 -8 -7 -15 -9 -15 -2 0 -5 7 -9 15 -3 9 0 15 9
15 9 0 12 -6 9 -15z m119 0 c-1 -5 -10 -10 -19 -11 -9 -2 -20 -8 -24 -14 -5
-8 -9 -7 -13 4 -4 9 -3 15 1 15 19 -3 33 2 28 10 -4 5 2 8 11 7 10 -2 17 -7
16 -11z m77 5 c0 -5 -2 -10 -4 -10 -3 0 -8 5 -11 10 -3 6 -1 10 4 10 6 0 11
-4 11 -10z m84 -15 c-4 -8 -11 -15 -17 -15 -6 0 -7 -3 -4 -6 3 -4 2 -16 -4
-26 -8 -15 -14 -17 -22 -9 -8 8 -3 19 18 41 33 34 37 36 29 15z m3796 -15 c0
-16 -4 -30 -10 -30 -5 0 -10 5 -10 11 0 6 -9 9 -20 6 -28 -7 -23 26 5 35 33
10 35 9 35 -22z m434 15 c3 -9 0 -15 -9 -15 -8 0 -15 7 -15 15 0 8 4 15 9 15
5 0 11 -7 15 -15z m124 6 c11 -7 11 -9 -1 -14 -9 -3 -18 1 -21 9 -6 16 2 18
22 5z m-3030 -36 c-1 -1 -14 -6 -27 -10 l-24 -7 19 25 c16 21 21 22 27 10 5
-8 7 -16 5 -18z m138 28 c-10 -10 -46 -11 -46 -1 0 4 12 8 27 8 14 0 23 -3 19
-7z m514 3 c0 -3 -4 -8 -10 -11 -5 -3 -10 -1 -10 4 0 6 5 11 10 11 6 0 10 -2
10 -4z m1900 -10 c0 -8 16 -16 41 -20 35 -6 92 -28 108 -42 5 -5 -23 -28 -53
-45 -13 -8 -17 -8 -12 0 4 6 0 11 -9 11 -9 0 -14 -4 -11 -9 7 -11 -28 -21 -76
-21 -34 0 -38 3 -38 24 0 14 7 31 15 39 10 11 11 17 3 19 -16 6 -1 58 17 58 8
0 15 -6 15 -14z m-3820 -12 c0 -2 -7 -4 -15 -4 -8 0 -15 4 -15 10 0 5 7 7 15
4 8 -4 15 -8 15 -10z m1117 -31 c2 -86 18 -103 98 -103 16 0 21 -6 21 -22 -1
-23 4 -25 39 -12 11 4 17 3 12 -1 -4 -5 0 -17 9 -27 14 -15 20 -16 32 -5 13
10 14 9 10 -3 -2 -8 -18 -16 -34 -17 -16 -2 -42 -5 -59 -8 -16 -3 -35 -7 -42
-7 -7 -1 -11 -12 -9 -27 2 -22 -1 -27 -22 -26 -36 0 -41 -25 -5 -26 19 -1 22
-3 9 -6 -15 -4 -16 -7 -5 -15 10 -7 8 -8 -8 -5 -15 3 -23 0 -23 -8 0 -7 10
-11 23 -10 12 1 14 0 5 -2 -10 -2 -18 -9 -18 -14 0 -6 -4 -8 -8 -5 -5 3 -16
-4 -26 -15 -17 -20 -17 -21 3 -14 12 4 21 2 21 -4 0 -6 -6 -11 -13 -11 -9 0
-13 -15 -13 -45 1 -25 4 -45 8 -45 17 0 7 -32 -12 -37 -11 -3 -17 -9 -14 -14
3 -5 10 -6 16 -3 7 4 8 2 4 -5 -6 -9 -11 -9 -22 0 -7 6 -11 16 -7 22 3 5 -3
17 -13 25 -15 11 -15 13 -2 9 21 -7 33 22 13 29 -24 10 -45 -3 -39 -23 4 -11
3 -14 -3 -7 -4 6 -15 10 -24 9 -11 -2 -16 3 -14 14 2 9 4 22 4 29 1 14 41 17
41 2 0 -18 29 -11 40 9 13 26 13 40 -1 21 -8 -12 -12 -12 -16 -2 -3 9 -9 10
-18 2 -9 -8 -14 -7 -18 3 -3 8 -16 13 -30 12 -15 -2 -28 3 -31 11 -4 10 -2 12
6 8 6 -4 24 -8 40 -9 20 -1 25 1 18 10 -5 7 -7 15 -3 18 3 4 0 7 -8 7 -12 0
-12 2 1 10 9 5 19 5 26 -1 8 -6 14 -4 18 7 11 30 6 34 -37 28 -33 -5 -47 -2
-60 11 -16 15 -17 15 -18 -2 -1 -16 -2 -16 -6 -1 -2 9 -13 20 -23 23 -11 3
-17 12 -14 20 7 17 40 12 36 -6 -3 -11 -1 -11 9 -2 10 10 15 8 23 -9 15 -29
36 -35 36 -9 0 12 5 21 10 21 6 0 10 7 10 15 0 8 -7 15 -15 15 -8 0 -15 5 -15
11 0 5 5 7 10 4 6 -3 10 1 10 9 0 19 -11 21 -28 4 -6 -6 -24 -12 -39 -14 -27
-3 -27 -2 -9 12 11 8 16 14 11 14 -4 0 0 9 10 20 10 11 21 18 24 15 4 -2 13 0
21 5 11 7 11 11 1 23 -7 9 -8 18 -2 21 5 3 12 0 14 -6 3 -7 6 -3 6 10 1 21
-11 26 -56 25 -7 -1 -13 4 -13 9 0 6 14 8 30 6 22 -3 30 -1 31 11 0 12 3 11 9
-4 7 -17 9 -17 9 -2 1 20 5 21 30 7 15 -8 17 -6 13 15 -2 14 -9 25 -14 25 -12
0 -42 30 -31 31 42 4 54 7 60 12 3 4 7 7 8 7 1 0 2 -21 2 -47z m667 20 l-6
-28 17 23 c14 19 18 20 30 9 7 -8 15 -23 17 -33 2 -15 -2 -18 -22 -16 -14 1
-37 3 -52 4 -25 1 -42 18 -18 18 6 0 10 5 10 10 0 10 20 39 28 40 1 0 0 -12
-4 -27z m1745 8 c9 -16 7 -20 -14 -23 -13 -3 -22 -2 -20 3 3 4 -1 10 -7 12
-10 4 -9 8 2 16 21 15 28 14 39 -8z m131 9 c13 -9 13 -11 0 -20 -22 -15 -30
-12 -30 10 0 22 8 25 30 10z m-3890 -33 c0 -7 -4 -6 -10 3 -8 13 -11 11 -16
-7 -4 -13 -13 -23 -20 -23 -10 0 -7 7 8 25 21 24 38 25 38 2z m1255 12 c11
-17 -1 -21 -15 -4 -8 9 -8 15 -2 15 6 0 14 -5 17 -11z m180 1 c3 -5 -1 -10 -9
-10 -9 0 -16 5 -16 10 0 6 4 10 9 10 6 0 13 -4 16 -10z m699 1 c3 -5 -2 -11
-12 -13 -11 -3 -19 0 -19 8 0 16 23 19 31 5z m829 2 c-7 -2 -13 -11 -13 -19 0
-8 -3 -13 -7 -13 -20 3 -24 -2 -13 -16 15 -19 3 -20 -15 -2 -7 8 -10 18 -7 23
9 12 45 33 57 33 6 0 4 -3 -2 -6z m1949 -15 c-7 -7 -12 -8 -12 -2 0 14 12 26
19 19 2 -3 -1 -11 -7 -17z m-5352 -8 c-24 -15 -36 -11 -14 4 10 8 21 12 24 10
2 -3 -2 -9 -10 -14z m173 -12 c-2 -5 2 -8 9 -8 7 0 20 -5 28 -10 13 -8 12 -12
-7 -29 -14 -13 -23 -16 -25 -9 -2 6 -9 8 -16 4 -13 -8 -6 -33 11 -39 7 -2 4
-3 -6 -1 -11 1 -23 -9 -32 -27 -9 -16 -18 -29 -21 -29 -3 0 -2 5 2 11 3 6 0
15 -7 20 -11 7 -10 9 3 9 12 0 15 5 11 15 -3 10 -1 15 7 13 8 -2 14 10 17 32
2 22 0 30 -5 22 -6 -9 -18 -11 -35 -6 -21 5 -27 2 -27 -10 0 -9 4 -16 8 -16 4
0 8 -9 9 -21 2 -29 -20 -9 -46 41 l-20 38 30 -8 c25 -7 29 -7 20 4 -9 11 -6
12 14 8 14 -2 22 -8 19 -13 -7 -12 3 -11 26 1 13 7 17 16 13 27 -6 15 -5 16 9
3 9 -8 14 -18 11 -22z m1224 19 c0 -7 -9 -14 -20 -15 -12 0 -25 -8 -29 -17
-10 -17 -38 -21 -38 -5 0 6 8 10 18 10 15 0 15 2 2 11 -13 9 -12 10 3 5 9 -3
17 -1 17 5 0 6 4 8 9 4 5 -3 12 -1 16 5 9 14 22 12 22 -3z m217 -3 c3 -8 2
-12 -4 -9 -6 3 -10 10 -10 16 0 14 7 11 14 -7z m46 7 c0 -18 -18 -21 -30 -6
-10 13 -9 15 9 15 11 0 21 -4 21 -9z m-100 -31 c0 -11 -6 -17 -17 -16 -22 4
-29 26 -8 26 10 0 13 5 9 12 -4 7 -3 8 4 4 7 -4 12 -16 12 -26z m2110 13 c0
-9 -3 -13 -7 -10 -3 4 -12 2 -20 -4 -18 -16 -16 -4 3 15 20 20 24 20 24 -1z
m-2820 -13 c-24 -15 -37 -11 -16 5 11 8 22 12 25 9 3 -3 -1 -9 -9 -14z m170 8
c0 -9 4 -8 10 2 5 8 10 10 10 5 0 -7 15 -9 35 -7 22 3 35 0 35 -7 0 -7 5 -9
10 -6 6 3 10 2 10 -4 0 -5 -12 -8 -27 -7 -16 2 -42 4 -59 5 -18 1 -34 7 -38
16 -3 8 -1 15 4 15 6 0 10 -6 10 -12z m2895 2 c-3 -5 -12 -10 -18 -10 -7 0 -6
4 3 10 19 12 23 12 15 0z m-3358 -6 c-3 -3 -12 -4 -19 -1 -8 3 -5 6 6 6 11 1
17 -2 13 -5z m2023 -3 c0 -5 -6 -14 -14 -20 -11 -9 -16 -9 -21 0 -4 6 -1 15 6
20 18 11 29 11 29 0z m100 5 c0 -2 -7 -7 -16 -10 -8 -3 -12 -2 -9 4 6 10 25
14 25 6z m30 -5 c0 -5 -7 -12 -16 -15 -14 -5 -15 -4 -4 9 14 17 20 19 20 6z
m455 0 c3 -5 18 -8 33 -6 31 3 53 -11 46 -29 -6 -15 -54 -9 -54 6 0 6 -12 8
-29 5 -25 -5 -28 -3 -24 13 6 21 18 26 28 11z m-2675 -16 c-7 -9 -15 -13 -17
-11 -7 7 7 26 19 26 6 0 6 -6 -2 -15z m1607 9 c-3 -3 -12 -4 -19 -1 -8 3 -5 6
6 6 11 1 17 -2 13 -5z m2143 2 c0 -2 -8 -10 -17 -17 -16 -13 -17 -12 -4 4 13
16 21 21 21 13z m-3282 -44 c-4 -23 -33 -22 -32 1 1 9 -2 17 -8 17 -5 0 -6 5
-3 10 10 16 47 -9 43 -28z m37 18 c-3 -5 -12 -10 -18 -10 -7 0 -6 4 3 10 19
12 23 12 15 0z m70 0 c-4 -6 7 -8 27 -4 25 4 29 3 18 -5 -13 -9 -12 -11 5 -11
12 0 16 -3 9 -8 -6 -4 -10 -29 -10 -57 1 -45 -1 -50 -21 -53 -27 -4 -31 13 -6
22 12 5 14 9 5 18 -7 7 -12 20 -12 29 0 17 -15 20 -36 6 -14 -8 -40 20 -29 31
4 4 10 1 12 -6 3 -6 9 -10 14 -6 14 8 11 24 -6 24 -18 0 -20 16 -2 23 21 9 38
7 32 -3z m2680 0 c-3 -5 1 -10 11 -10 13 0 14 -3 5 -14 -14 -16 -61 -18 -61
-2 0 9 21 24 48 35 2 0 0 -3 -3 -9z m211 -16 c-22 -16 -46 -19 -46 -5 0 10 52
31 60 24 3 -3 -4 -11 -14 -19z m54 22 c0 -11 -19 -15 -25 -6 -3 5 1 10 9 10 9
0 16 -2 16 -4z m1270 -12 c0 -2 -7 -4 -15 -4 -8 0 -15 4 -15 10 0 5 7 7 15 4
8 -4 15 -8 15 -10z m-3290 -15 c0 -6 -4 -7 -10 -4 -5 3 -10 11 -10 16 0 6 5 7
10 4 6 -3 10 -11 10 -16z m617 5 c-2 -2 -25 -6 -51 -9 -32 -3 -45 -1 -41 6 4
6 13 8 21 5 8 -3 24 -2 36 3 21 8 45 4 35 -5z m1194 -7 c-10 -9 -11 -8 -5 6 3
10 9 15 12 12 3 -3 0 -11 -7 -18z m-3046 3 c3 -5 1 -10 -4 -10 -6 0 -11 5 -11
10 0 6 2 10 4 10 3 0 8 -4 11 -10z m521 -5 c-8 -8 -20 -15 -26 -15 -6 0 -8 -5
-4 -12 5 -7 3 -8 -6 -3 -10 6 -7 12 11 26 29 22 46 25 25 4z m2036 -29 c-10
-6 -19 -4 -26 6 -6 8 -17 13 -23 11 -7 -3 -13 -1 -13 5 0 18 11 19 44 3 27
-13 30 -18 18 -25z m-2712 30 c0 -3 -4 -8 -10 -11 -5 -3 -10 -1 -10 4 0 6 5
11 10 11 6 0 10 -2 10 -4z m3705 -16 c-3 -5 3 -11 12 -13 11 -3 8 -5 -9 -6
-22 -1 -28 4 -28 19 0 13 5 18 15 14 8 -4 13 -10 10 -14z m-455 -10 c0 -5 -8
-14 -18 -19 -14 -8 -19 -6 -19 5 0 7 7 14 14 14 8 0 11 5 7 12 -4 7 -3 8 4 4
7 -4 12 -11 12 -16z m420 -7 c0 -8 -4 -12 -9 -9 -5 4 -12 0 -14 -6 -4 -10 -8
-9 -16 2 -8 11 -11 12 -11 2 0 -7 -4 -11 -10 -7 -14 9 0 34 16 28 8 -3 14 0
14 6 0 6 7 8 15 5 8 -4 15 -13 15 -21z m-4400 7 c0 -5 -7 -7 -15 -4 -8 4 -15
8 -15 10 0 2 7 4 15 4 8 0 15 -4 15 -10z m1767 -12 c2 -17 0 -19 -7 -8 -5 8
-6 18 -4 22 8 12 10 10 11 -14z m723 18 c0 -2 -9 -6 -20 -9 -11 -3 -20 -1 -20
4 0 5 9 9 20 9 11 0 20 -2 20 -4z m-2113 -25 c-1 -16 -4 -17 -15 -9 -10 9 -11
13 0 19 17 11 17 12 15 -10z m2425 -6 c16 5 20 4 13 -3 -5 -6 -27 -13 -49 -16
-32 -5 -37 -4 -32 10 3 8 6 20 6 26 0 6 9 3 19 -6 13 -12 27 -16 43 -11z m688
15 c0 -5 -7 -10 -16 -10 -8 0 -12 5 -9 10 3 6 10 10 16 10 5 0 9 -4 9 -10z
m104 2 c6 -10 -5 -26 -20 -29 -7 -1 -10 6 -7 17 5 21 18 26 27 12z m1380 -8
c17 -4 22 -11 19 -24 -4 -16 -13 -19 -43 -16 -21 2 -46 11 -56 20 -12 12 -20
14 -27 7 -6 -6 -21 -11 -34 -11 -21 0 -22 2 -11 21 12 19 19 20 71 15 32 -3
68 -8 81 -12z m-2394 -4 c0 -5 -4 -10 -9 -10 -6 0 -13 5 -16 10 -3 6 1 10 9
10 9 0 16 -4 16 -10z m1325 0 c3 -5 2 -10 -4 -10 -5 0 -13 5 -16 10 -3 6 -2
10 4 10 5 0 13 -4 16 -10z m900 0 c-11 -5 -27 -9 -35 -9 -13 -1 -13 0 0 9 8 5
24 9 35 9 l20 0 -20 -9z m-3064 -38 c-5 -25 -6 -25 -9 -4 -2 12 -10 22 -17 22
-9 0 -12 -6 -9 -15 4 -8 1 -15 -5 -15 -6 0 -11 6 -11 13 0 20 20 35 39 30 14
-3 17 -11 12 -31z m2121 26 c-7 -7 -16 -7 -28 0 -14 8 -13 10 10 10 18 0 24
-4 18 -10z m-3357 -10 c5 4 5 1 1 -6 -4 -7 -12 -10 -17 -7 -5 4 -9 0 -9 -7 0
-10 -3 -9 -9 2 -13 19 -3 34 13 21 7 -6 17 -7 21 -3z m106 -3 c30 3 39 -2 57
-32 10 -19 10 -23 -3 -23 -8 0 -17 11 -21 25 -6 23 -7 24 -23 7 -9 -10 -11
-11 -6 -3 7 11 7 13 -2 7 -15 -8 -53 10 -53 26 0 7 4 7 13 0 6 -5 24 -9 38 -7z
m2046 -1 c2 -7 -8 -9 -28 -6 -22 3 -27 7 -18 13 17 11 41 7 46 -7z m58 -4 c0
-7 -7 -16 -15 -18 -13 -5 -13 -3 -1 12 12 14 12 16 -3 10 -9 -3 -16 -2 -16 4
0 6 8 9 18 8 9 -2 17 -9 17 -16z m645 10 c-8 -5 -19 -10 -25 -10 -5 0 -3 5 5
10 8 5 20 10 25 10 6 0 3 -5 -5 -10z m-3305 -10 c3 -5 1 -10 -4 -10 -6 0 -11
5 -11 10 0 6 2 10 4 10 3 0 8 -4 11 -10z m972 -6 c0 -8 -3 -12 -5 -9 -3 3 -11
0 -18 -6 -13 -11 -30 4 -20 19 8 14 43 11 43 -4z m1821 -9 c-3 -3 -9 2 -12 12
-6 14 -5 15 5 6 7 -7 10 -15 7 -18z m2607 15 l-20 -9 20 -1 20 -1 -20 -9 c-30
-13 -35 -12 -35 10 0 15 6 20 28 19 24 0 25 -1 7 -9z m-4655 -10 c0 -5 -5 -10
-11 -10 -5 0 -7 5 -4 10 3 6 8 10 11 10 2 0 4 -4 4 -10z m1430 6 c0 -11 -19
-15 -25 -6 -3 5 1 10 9 10 9 0 16 -2 16 -4z m-1655 -28 c6 -4 2 -8 -7 -8 -10
0 -18 7 -18 17 0 9 3 12 8 7 4 -5 12 -12 17 -16z m-430 -2 c16 -16 8 -57 -10
-50 -7 3 -15 -3 -17 -14 -6 -22 18 -26 26 -5 3 8 10 11 16 8 6 -3 7 0 4 9 -3
9 1 23 10 31 9 9 17 14 17 11 1 -3 2 -9 3 -13 8 -41 46 -53 46 -15 0 14 -2 15
-10 2 -5 -8 -13 -11 -17 -6 -4 4 3 15 16 24 26 18 91 26 91 12 0 -5 10 -11 23
-13 19 -4 19 -4 -5 -6 -14 0 -29 5 -31 12 -3 6 -6 0 -6 -15 -1 -15 -5 -29 -10
-32 -4 -3 -6 -17 -3 -32 l5 -26 -27 17 c-18 12 -26 14 -24 5 6 -25 -22 -21
-32 6 -10 26 -11 26 -30 9 -11 -10 -17 -22 -14 -26 3 -5 1 -9 -5 -9 -5 0 -12
6 -15 13 -3 8 -8 7 -16 -5 -13 -22 -30 -23 -30 -3 0 8 -6 12 -14 9 -17 -7 -31
27 -15 37 7 4 9 14 6 23 -4 9 -1 16 6 16 7 0 19 9 27 20 17 24 18 24 35 6z
m655 -2 c0 -8 -19 -13 -24 -6 -3 5 1 9 9 9 8 0 15 -2 15 -3z m40 -4 c0 -5 -7
-10 -15 -10 -8 0 -15 5 -15 10 0 6 7 10 15 10 8 0 15 -4 15 -10z m495 -38 c-3
-3 -5 0 -5 6 0 7 -7 12 -15 12 -13 0 -14 2 -3 14 11 12 14 11 21 -7 4 -11 5
-22 2 -25z m385 38 c0 -5 -2 -10 -4 -10 -3 0 -8 5 -11 10 -3 6 -1 10 4 10 6 0
11 -4 11 -10z m1790 0 c0 -5 -2 -10 -4 -10 -2 0 -12 -3 -20 -6 -12 -5 -15 -2
-10 10 7 17 34 22 34 6z m334 4 c13 -5 14 -10 5 -20 -8 -10 -15 -11 -29 -2
-30 19 -11 35 24 22z m789 -24 c31 -6 57 -15 57 -20 0 -5 -14 -4 -32 1 -36 10
-43 6 -44 -24 -1 -12 -2 -26 -4 -32 -7 -26 2 -44 22 -47 20 -3 36 -38 17 -38
-5 0 -9 7 -9 15 0 8 -7 15 -15 15 -12 0 -14 -7 -9 -26 6 -24 4 -25 -26 -22
l-33 3 2 93 c1 59 -2 92 -8 92 -6 0 -11 -5 -11 -12 0 -6 -3 -9 -6 -5 -4 3 -4
13 0 22 4 12 10 13 23 7 10 -6 44 -15 76 -22z m-13622 11 c-11 -7 -7 -10 15
-13 l29 -3 3 -83 c2 -74 5 -83 20 -78 16 6 16 5 0 -7 -9 -7 -18 -31 -20 -53
l-3 -39 -85 0 -85 0 -8 91 c-4 51 -4 109 1 130 8 39 8 39 60 42 29 2 52 7 52
13 0 5 8 9 18 9 14 0 14 -2 3 -9z m79 -10 c5 -11 9 -50 8 -88 l-1 -68 -6 78
c-4 53 -11 81 -21 87 -9 6 -10 10 -3 10 7 0 17 -9 23 -19z m9775 9 c3 -5 1
-10 -4 -10 -6 0 -11 5 -11 10 0 6 2 10 4 10 3 0 8 -4 11 -10z m72 -7 c2 -6 -3
-13 -12 -16 -10 -5 -15 0 -15 14 0 21 21 22 27 2z m1618 7 c-3 -5 -12 -10 -18
-10 -7 0 -6 4 3 10 19 12 23 12 15 0z m-1538 -31 c2 -24 0 -23 -16 8 -9 18 -9
22 2 18 7 -3 13 -15 14 -26z m218 21 c-3 -5 -12 -10 -18 -10 -7 0 -6 4 3 10
19 12 23 12 15 0z m2685 -6 c0 -2 -12 -4 -26 -4 -14 0 -23 4 -20 9 6 8 46 4
46 -5z m-2935 -4 c3 -5 1 -10 -4 -10 -6 0 -11 5 -11 10 0 6 2 10 4 10 3 0 8
-4 11 -10z m1092 -6 c2 -6 -3 -11 -12 -11 -8 0 -15 7 -15 15 0 15 22 12 27 -4z
m542 12 c-2 -2 -17 -6 -34 -10 -22 -5 -26 -4 -15 4 14 9 59 15 49 6z m791 -6
c0 -5 -5 -10 -11 -10 -5 0 -7 5 -4 10 3 6 8 10 11 10 2 0 4 -4 4 -10z m1100 0
c0 -5 -4 -10 -10 -10 -5 0 -10 5 -10 10 0 6 5 10 10 10 6 0 10 -4 10 -10z
m-3436 -31 c-7 -12 -44 2 -44 16 0 10 5 11 24 2 13 -7 22 -15 20 -18z m1583
25 c-3 -3 -12 -4 -19 -1 -8 3 -5 6 6 6 11 1 17 -2 13 -5z m41 -19 c0 -14 -5
-25 -10 -25 -5 0 -7 4 -3 9 3 5 0 13 -6 17 -8 4 -7 9 2 15 8 5 15 9 15 9 1 0
2 -11 2 -25z m1422 15 c0 -5 -5 -10 -11 -10 -5 0 -7 5 -4 10 3 6 8 10 11 10 2
0 4 -4 4 -10z m112 -22 c-5 -5 -17 -10 -25 -12 -9 -1 -27 -14 -41 -29 -24 -25
-85 -40 -71 -17 3 6 -1 17 -9 26 -9 8 -17 13 -17 10 -1 -3 -3 -10 -4 -16 -1
-5 -3 -13 -4 -16 0 -4 -8 -1 -17 7 -14 11 -14 13 1 21 24 14 55 18 55 7 0 -5
9 -9 21 -9 11 0 17 5 14 10 -5 9 1 12 21 9 4 0 10 4 13 9 10 14 65 30 70 20 2
-6 -1 -14 -7 -20z m118 16 c0 -2 -15 -4 -32 -3 -27 0 -29 2 -13 8 18 8 45 4
45 -5z m-2220 -15 c0 -9 -2 -10 -35 -14 -11 -1 -31 -5 -44 -10 -18 -5 -22 -4
-16 6 5 8 -1 5 -13 -5 -25 -22 -30 -6 -6 18 18 18 30 20 39 6 4 -7 14 -5 27 4
20 15 48 12 48 -5z m-2129 -12 c-10 -9 -11 -8 -5 6 3 10 9 15 12 12 3 -3 0
-11 -7 -18z m392 10 c6 4 8 0 4 -10 -4 -11 -2 -14 8 -10 8 3 12 9 9 14 -3 5 0
9 5 9 6 0 11 -6 11 -12 0 -9 4 -8 10 2 11 16 11 15 15 -17 1 -14 -2 -20 -12
-16 -9 4 -11 0 -7 -11 3 -9 11 -16 17 -16 7 0 7 -4 -1 -12 -7 -7 -12 -20 -12
-30 0 -10 -4 -18 -10 -18 -5 0 -10 5 -10 11 0 5 -5 7 -12 3 -6 -4 -8 -3 -4 4
3 6 2 13 -4 17 -5 3 -7 17 -4 31 5 18 2 24 -10 24 -9 0 -13 -6 -10 -14 3 -8 1
-17 -5 -20 -5 -4 -9 2 -9 11 1 10 -2 29 -6 42 -6 16 -5 21 3 17 6 -4 11 -1 12
6 0 10 2 10 6 0 2 -6 10 -9 16 -5z m1807 2 c0 -11 -22 -16 -42 -11 -10 2 -15
8 -12 13 6 10 54 8 54 -2z m56 3 c7 -4 8 -15 3 -27 -7 -19 -8 -18 -8 4 -1 20
-3 22 -16 11 -9 -7 -19 -10 -22 -6 -4 4 -1 11 7 16 18 12 22 12 36 2z m-2186
-59 c16 -19 12 -25 -11 -13 -11 7 -27 9 -35 6 -8 -3 -14 -1 -14 4 0 6 5 10 10
10 6 0 10 10 10 23 1 22 1 22 15 2 8 -11 19 -25 25 -32z m1050 37 c0 -5 -9
-10 -20 -10 -11 0 -20 5 -20 10 0 6 9 10 20 10 11 0 20 -4 20 -10z m2185 -10
c-2 -4 -18 -6 -35 -4 -16 2 -30 0 -30 -5 0 -5 -7 -12 -16 -15 -14 -5 -15 -4
-4 9 7 8 9 15 4 16 -5 1 2 4 16 8 29 8 72 2 65 -9z m1405 11 c0 -5 -7 -11 -15
-15 -15 -5 -20 5 -8 17 9 10 23 9 23 -2z m-4110 -12 c0 -6 7 -9 14 -6 10 4 13
1 9 -9 -6 -17 -23 -19 -23 -3 0 6 -7 9 -15 6 -8 -4 -17 -2 -20 3 -3 4 1 11 7
13 21 9 28 8 28 -4z m450 -3 c-15 -14 -70 -31 -70 -22 0 8 53 35 70 36 13 0
13 -2 0 -14z m2630 -7 c0 -5 -7 -9 -15 -9 -9 0 -12 6 -9 15 6 15 24 11 24 -6z
m337 6 c0 -8 -4 -12 -9 -9 -4 3 -8 9 -8 15 0 5 4 9 8 9 5 0 9 -7 9 -15z
m-3488 -16 c-22 -13 -31 -11 -17 5 7 8 17 12 22 9 4 -3 2 -9 -5 -14z m430 0
c-7 -14 -17 -19 -30 -16 -14 4 -19 1 -17 -10 2 -9 -3 -18 -11 -21 -8 -3 -11 0
-7 7 4 6 1 11 -8 11 -9 0 -14 8 -13 21 1 19 2 19 14 3 7 -10 13 -13 13 -7 0
11 36 31 58 32 10 1 10 -4 1 -20z m2215 12 c3 -5 -5 -11 -19 -13 -20 -4 -23
-3 -14 8 13 16 25 18 33 5z m-2890 -16 c17 -13 18 -15 2 -21 -18 -7 -49 13
-40 27 7 12 16 11 38 -6z m953 -48 c-1 -43 -6 -64 -14 -64 -12 0 -11 22 3 65
2 6 -2 12 -8 12 -9 0 -9 3 -1 11 6 6 9 18 6 25 -3 8 0 14 5 14 7 0 10 -24 9
-63z m2075 41 c-7 -7 -12 -8 -12 -2 0 14 12 26 19 19 2 -3 -1 -11 -7 -17z
m288 7 c0 -8 -4 -15 -10 -15 -5 0 -10 7 -10 15 0 8 5 15 10 15 6 0 10 -7 10
-15z m1045 5 c-3 -5 -11 -10 -16 -10 -6 0 -7 5 -4 10 3 6 11 10 16 10 6 0 7
-4 4 -10z m-4441 -21 c12 -15 20 -18 25 -10 5 8 13 7 27 -4 19 -15 19 -16 -1
-13 -12 2 -19 -2 -17 -9 1 -7 -2 -13 -8 -13 -5 0 -10 7 -10 16 0 8 -4 12 -10
9 -5 -3 -10 -2 -10 2 0 5 -12 9 -27 8 -24 0 -28 -4 -28 -27 -1 -16 3 -28 7
-28 4 0 8 4 8 9 0 10 40 8 58 -3 6 -4 8 -14 5 -23 -5 -12 -2 -15 10 -10 9 3
17 2 17 -3 0 -6 -11 -10 -25 -10 -14 0 -25 6 -25 13 0 8 -4 7 -10 -3 -14 -22
-12 -77 3 -83 6 -3 3 -6 -8 -6 -16 -1 -17 -3 -6 -10 12 -8 12 -12 2 -25 -7 -9
-11 -22 -8 -31 4 -8 1 -17 -5 -21 -7 -4 -8 -3 -4 4 4 7 3 12 -3 12 -7 0 -7 8
-1 26 8 20 7 25 -2 22 -7 -3 -14 -14 -16 -26 -3 -17 -10 -22 -30 -21 -20 1
-22 3 -7 6 17 3 43 42 52 78 1 6 5 20 9 33 4 13 2 22 -5 22 -6 0 -11 -8 -12
-17 0 -11 -3 -13 -6 -5 -2 6 -8 10 -12 8 -4 -3 -13 0 -21 6 -12 8 -12 9 3 4
11 -3 24 2 34 14 9 10 19 17 23 15 3 -2 12 5 19 17 10 16 10 19 -1 12 -31 -20
-80 -22 -85 -4 -4 12 -3 12 5 1 7 -9 11 -10 17 -2 4 7 1 18 -5 26 -10 12 -10
15 1 16 8 0 5 4 -6 8 -16 7 -13 9 18 15 20 4 37 11 37 16 0 16 14 11 34 -11z
m880 10 c4 6 12 11 17 11 6 0 7 -4 4 -10 -8 -13 1 -13 26 1 22 11 63 3 54 -12
-4 -5 -1 -9 5 -9 13 0 8 -50 -6 -51 -5 -1 -16 -5 -25 -10 -19 -10 -59 14 -41
25 6 3 13 2 17 -4 10 -16 34 -11 45 10 9 17 7 19 -17 15 -55 -7 -70 -20 -64
-57 0 -4 -10 -3 -23 2 -18 7 -26 5 -30 -6 -4 -11 -10 -12 -31 -2 -23 10 -24
12 -7 24 10 6 29 14 42 17 14 2 1 5 -29 6 -46 1 -52 3 -41 16 14 17 40 20 40
5 0 -5 5 -10 12 -10 6 0 9 3 6 6 -4 3 1 13 10 23 10 9 20 13 23 8 4 -5 9 -4
13 2z m2010 -4 c4 -11 -1 -15 -19 -15 -29 0 -34 16 -7 23 9 3 18 5 18 6 1 0 4
-6 8 -14z m772 4 c4 -7 1 -10 -7 -7 -8 3 -22 1 -31 -4 -14 -6 -16 -5 -12 7 7
18 40 20 50 4z m-1803 -16 c-4 -10 -8 -12 -10 -6 -2 6 -13 9 -23 6 -11 -3 -17
-10 -13 -17 4 -8 2 -8 -7 1 -18 16 -7 28 29 30 24 2 29 -1 24 -14z m2925 9
c16 -10 5 -42 -14 -42 -8 0 -14 10 -14 25 0 26 7 30 28 17z m-2364 -12 c-11
-11 -54 -22 -54 -14 0 5 40 22 55 23 5 1 5 -3 -1 -9z m399 3 c-7 -2 -19 -2
-25 0 -7 3 -2 5 12 5 14 0 19 -2 13 -5z m640 0 c-7 -2 -19 -2 -25 0 -7 3 -2 5
12 5 14 0 19 -2 13 -5z m1107 -3 c0 -7 8 -7 23 1 20 10 20 10 7 -4 -24 -24
-83 -37 -98 -21 -11 12 -8 14 12 14 14 0 28 5 31 10 8 13 25 13 25 0z m-503
-6 c-3 -3 -12 -4 -19 -1 -8 3 -5 6 6 6 11 1 17 -2 13 -5z m-4233 -12 c3 -5 -1
-9 -9 -9 -8 0 -12 4 -9 9 3 4 7 8 9 8 2 0 6 -4 9 -8z m603 2 c-3 -3 -12 -4
-19 -1 -8 3 -5 6 6 6 11 1 17 -2 13 -5z m2406 -10 c-4 -10 -10 -11 -24 -3 -15
7 -19 6 -19 -5 0 -8 6 -17 13 -19 7 -4 6 -6 -4 -6 -20 -1 -34 30 -18 39 20 13
58 9 52 -6z m727 12 c0 -2 -9 -6 -20 -9 -11 -3 -18 -1 -14 4 5 9 34 13 34 5z
m460 -6 c0 -5 -6 -10 -14 -10 -8 0 -16 -5 -18 -12 -3 -9 -6 -9 -12 0 -6 10 13
24 42 31 1 1 2 -3 2 -9z m-3507 -7 c9 -9 -12 -33 -30 -33 -11 0 -11 4 -3 20
11 21 22 25 33 13z m153 -14 c17 -9 40 -19 50 -22 19 -5 0 -8 -73 -11 -26 -1
-29 1 -20 13 10 11 9 13 -3 9 -8 -2 -21 2 -29 9 -11 11 -16 12 -21 2 -5 -7
-16 -9 -26 -5 -16 6 -16 9 -4 17 22 14 90 8 126 -12z m-592 -20 c-3 -5 -10 -9
-15 -9 -6 0 -7 6 -3 13 5 8 2 8 -9 -2 -19 -15 -23 -1 -5 17 13 13 42 -4 32
-19z m46 11 c6 -11 8 -20 6 -20 -3 0 -10 9 -16 20 -6 11 -8 20 -6 20 3 0 10
-9 16 -20z m1684 11 c4 -5 -3 -7 -14 -4 -23 6 -26 13 -6 13 8 0 17 -4 20 -9z
m2155 -5 c9 -11 6 -13 -16 -13 -14 0 -32 -9 -40 -19 -7 -9 -16 -15 -19 -11 -9
9 15 37 41 47 11 5 21 9 21 9 1 1 7 -5 13 -13z m-2089 -12 l25 -15 -25 7 c-14
3 -29 10 -34 15 -16 14 6 10 34 -7z m1900 6 c0 -5 -5 -10 -12 -10 -6 0 -19 -7
-29 -16 -16 -14 -17 -13 -15 8 1 19 7 25 28 26 16 1 28 -2 28 -8z m-2370 -4
c0 -2 -9 -6 -20 -9 -11 -3 -20 -1 -20 4 0 5 9 9 20 9 11 0 20 -2 20 -4z m55
-14 c-3 -3 -11 0 -18 7 -9 10 -8 11 6 5 10 -3 15 -9 12 -12z m108 -14 c10 -24
13 -25 19 -10 5 14 7 13 7 -5 1 -17 -5 -23 -19 -23 -11 0 -20 5 -20 11 0 5 -4
8 -8 5 -4 -2 -14 -1 -22 5 -10 6 -11 9 -2 9 6 0 12 5 12 10 0 6 -15 10 -32 10
-20 0 -28 3 -21 8 7 4 26 8 43 7 23 0 33 -6 43 -27z m242 12 c-3 -5 -1 -10 4
-10 6 0 11 -4 11 -9 0 -4 -12 -7 -26 -5 -27 3 -47 14 -25 14 7 0 9 5 6 10 -3
6 3 10 15 10 12 0 18 -4 15 -10z m1845 0 c0 -5 -5 -10 -11 -10 -5 0 -7 5 -4
10 3 6 8 10 11 10 2 0 4 -4 4 -10z m-3428 -22 c-7 -7 -12 -8 -12 -2 0 14 12
26 19 19 2 -3 -1 -11 -7 -17z m288 12 c0 -5 -5 -10 -11 -10 -5 0 -7 5 -4 10 3
6 8 10 11 10 2 0 4 -4 4 -10z m59 -2 c11 -10 13 -10 7 0 -4 6 -2 12 3 12 14 0
14 -20 1 -40 -8 -13 -10 -13 -10 0 0 10 -3 11 -11 3 -17 -17 -40 6 -25 24 14
16 19 16 35 1z m756 2 c3 -5 1 -10 -4 -10 -6 0 -11 5 -11 10 0 6 2 10 4 10 3
0 8 -4 11 -10z m95 -7 c0 -3 -6 -3 -14 0 -8 3 -17 -1 -20 -9 -4 -9 -2 -12 5
-8 7 4 10 1 7 -7 -3 -8 -11 -13 -17 -11 -6 1 -11 -5 -11 -13 0 -13 -3 -13 -20
-3 -22 14 -27 32 -8 26 7 -3 21 6 31 18 15 20 47 24 47 7z m-1730 -10 c0 -10
-4 -14 -8 -8 -4 6 -11 13 -16 18 -5 4 -2 7 7 7 10 0 17 -8 17 -17z m190 2 c-7
-9 -15 -13 -19 -10 -3 3 1 10 9 15 21 14 24 12 10 -5z m1876 1 c8 -8 10 -17 5
-21 -5 -3 -12 -1 -16 5 -4 6 -11 8 -16 5 -10 -7 -12 8 -2 18 9 10 13 9 29 -7z
m1312 -7 c-19 -12 -25 -11 -25 5 0 8 8 11 20 8 14 -4 16 -7 5 -13z m-165 -5
c-3 -8 -12 -13 -19 -10 -17 7 -19 -10 -1 -18 6 -3 1 -3 -12 0 -13 3 -26 2 -30
-4 -4 -7 -14 -6 -29 2 -23 12 -23 13 8 13 17 0 35 4 38 10 4 6 16 13 27 16 11
2 21 5 22 6 1 0 0 -6 -4 -15z m451 8 c3 -5 -1 -9 -9 -9 -8 0 -15 4 -15 9 0 4
4 8 9 8 6 0 12 -4 15 -8z m-2444 -12 c0 -6 -17 -10 -37 -10 -22 0 -33 4 -26 8
18 12 63 13 63 2z m125 2 c16 -11 14 -25 -6 -44 -16 -15 -18 -15 -23 8 -9 36
5 54 29 36z m185 -12 c-12 -22 -21 -26 -17 -7 2 10 17 26 25 27 1 0 -2 -9 -8
-20z m630 11 c0 -5 10 -13 21 -16 17 -6 18 -9 8 -16 -10 -6 -4 -17 24 -44 21
-21 35 -40 32 -43 -3 -4 -10 0 -15 8 -8 13 -13 13 -31 2 -19 -12 -21 -12 -16
2 7 18 -10 72 -20 63 -3 -4 -14 -2 -24 4 -15 8 -17 14 -9 29 11 21 30 27 30
11z m-1220 -11 c-8 -5 -10 -10 -4 -10 5 0 15 5 20 10 7 7 19 8 36 1 14 -5 29
-7 33 -3 3 3 10 0 14 -7 5 -7 20 -14 34 -14 24 -2 24 -3 10 -20 -19 -20 -18
-21 24 -35 23 -8 33 -7 35 0 2 6 12 12 22 14 10 1 15 -3 13 -9 -3 -7 -10 -11
-16 -9 -6 1 -11 -5 -11 -13 0 -8 -4 -15 -10 -15 -5 0 -10 5 -10 10 0 6 -6 10
-14 10 -20 0 -29 -30 -11 -36 22 -9 18 -34 -4 -31 -11 1 -20 -1 -20 -5 -3 -28
1 -38 13 -38 8 0 18 -5 22 -12 5 -7 2 -9 -8 -6 -8 4 -22 -2 -31 -12 -15 -18
-14 -19 4 -25 13 -4 28 0 40 11 22 20 30 16 23 -12 -6 -23 -19 -23 -81 -4 -44
13 -57 30 -25 30 16 1 16 1 -1 11 -9 6 -15 14 -12 20 4 5 -3 9 -15 9 -18 0
-65 24 -80 40 -3 3 -25 5 -50 4 -65 -2 -84 4 -69 22 9 11 25 13 63 9 28 -3 68
-7 89 -8 43 -3 67 -27 39 -40 -13 -6 -13 -7 4 -4 12 3 28 0 37 -4 12 -7 14 -5
10 11 -3 11 -10 17 -16 13 -6 -3 -2 6 9 20 10 15 26 27 34 28 11 1 10 3 -2 6
-10 2 -18 12 -18 21 0 13 -3 13 -15 -4 -13 -17 -14 -17 -9 -1 6 16 2 18 -35
14 -32 -3 -39 -1 -30 9 7 9 2 15 -25 25 -35 13 -40 39 -7 39 14 0 14 -2 1 -10z
m2527 4 c-3 -3 -12 -4 -19 -1 -8 3 -5 6 6 6 11 1 17 -2 13 -5z m-1891 -26 c-9
-5 -14 -13 -11 -19 4 -5 1 -9 -5 -9 -6 0 -8 -5 -4 -12 4 -7 3 -8 -4 -4 -7 4
-12 10 -12 15 0 14 35 49 44 44 4 -3 1 -10 -8 -15z m659 4 c-3 -3 -11 0 -18 7
-9 10 -8 11 6 5 10 -3 15 -9 12 -12z m-1870 -2 c3 -6 -1 -7 -9 -4 -18 7 -21
14 -7 14 6 0 13 -4 16 -10z m455 -5 c8 -9 9 -15 2 -15 -6 0 -14 5 -17 10 -10
16 -23 11 -30 -11 -6 -17 -9 -19 -16 -8 -6 9 -3 18 8 27 22 16 38 15 53 -3z
m1290 11 c0 -11 -19 -15 -25 -6 -3 5 1 10 9 10 9 0 16 -2 16 -4z m-450 -16 c0
-5 -5 -10 -11 -10 -5 0 -7 5 -4 10 3 6 8 10 11 10 2 0 4 -4 4 -10z m-770 -14
c0 -11 -19 -15 -25 -6 -3 5 1 10 9 10 9 0 16 -2 16 -4z m818 -26 c16 0 23 -16
16 -34 -6 -15 -8 -15 -21 1 -8 10 -12 12 -8 6 3 -7 1 -13 -4 -13 -6 0 -11 4
-11 9 0 5 -7 17 -16 25 -14 15 -14 16 1 16 10 0 14 5 10 13 -4 6 0 4 8 -5 8
-10 19 -18 25 -18z m582 17 c30 1 48 -1 40 -4 -8 -2 -22 -7 -30 -10 -8 -4 -18
-5 -22 -5 -5 1 -8 -2 -8 -8 0 -5 -13 -1 -30 8 -16 9 -30 21 -30 25 0 5 5 5 12
1 7 -4 37 -7 68 -7z m100 -2 c0 -8 -7 -15 -15 -15 -9 0 -12 6 -9 15 4 8 10 15
15 15 5 0 9 -7 9 -15z m-2400 -5 c0 -5 -5 -10 -11 -10 -5 0 -7 5 -4 10 3 6 8
10 11 10 2 0 4 -4 4 -10z m2096 -1 c4 -7 9 -8 13 -1 4 6 11 4 19 -4 11 -12 9
-14 -11 -14 -14 0 -30 7 -37 15 -8 9 -9 15 -2 15 6 0 14 -5 18 -11z m-230 -16
c7 -10 14 -25 14 -34 0 -20 35 -30 75 -23 30 5 30 5 10 -14 -12 -11 -23 -15
-26 -9 -4 5 -12 1 -19 -9 -10 -16 -11 -16 -6 -1 3 9 1 17 -4 17 -21 0 -25 2
-32 15 -5 7 -17 11 -28 8 -11 -3 -17 -9 -14 -14 3 -5 11 -6 17 -3 7 4 8 3 4
-1 -13 -15 -37 -14 -37 0 0 16 27 45 42 45 6 0 6 6 -2 15 -13 15 -35 11 -25
-6 4 -5 2 -9 -4 -9 -5 0 -17 -3 -25 -6 -25 -10 -9 21 17 34 29 14 28 14 43 -5z
m-646 -14 c0 -5 -7 -9 -15 -9 -15 0 -20 12 -9 23 8 8 24 -1 24 -14z m546 6
c-3 -8 -1 -15 4 -15 5 0 11 8 13 18 2 9 3 -4 2 -30 -1 -27 3 -49 9 -51 6 -2 9
-7 6 -10 -3 -3 -20 3 -37 14 l-32 20 16 35 c17 34 30 48 19 19z m-103 -10 c-3
-9 -8 -14 -10 -11 -3 3 -2 9 2 15 9 16 15 13 8 -4z m292 5 c-3 -5 -1 -10 5
-10 6 0 8 -4 5 -10 -10 -16 -23 -11 -20 8 5 23 4 22 11 22 3 0 2 -4 -1 -10z
m65 -40 c0 -21 -15 -27 -25 -10 -7 12 2 30 16 30 5 0 9 -9 9 -20z m-1827 -9
c4 -17 2 -18 -19 -9 -29 13 -31 28 -5 28 10 0 21 -9 24 -19z m1517 0 c0 -5 -8
-15 -17 -22 -16 -12 -17 -12 -6 2 7 9 10 19 6 22 -3 4 -1 7 5 7 7 0 12 -4 12
-9z m-217 -16 c-3 -9 -8 -14 -10 -11 -3 3 -2 9 2 15 9 16 15 13 8 -4z m123
-62 c-3 -4 -6 0 -6 7 0 11 -2 12 -12 1 -11 -10 -10 -15 4 -25 15 -11 12 -12
-17 -12 -19 1 -35 3 -35 6 0 2 12 15 27 27 14 13 21 23 14 23 -7 0 -9 5 -6 11
5 6 13 2 22 -11 8 -12 12 -24 9 -27z m-638 18 c27 -24 28 -31 2 -24 -11 3 -20
12 -20 20 0 10 -6 13 -16 9 -8 -3 -12 -2 -9 4 9 14 17 12 43 -9z m149 13 c-3
-3 -12 -4 -19 -1 -8 3 -5 6 6 6 11 1 17 -2 13 -5z m728 -24 c-3 -5 -13 -6 -21
-3 -12 4 -13 8 -3 14 15 9 32 2 24 -11z m-605 0 c0 -5 -2 -10 -4 -10 -3 0 -8
5 -11 10 -3 6 -1 10 4 10 6 0 11 -4 11 -10z m-3311 -1281 c35 -21 66 -54 88
-93 6 -12 15 -19 19 -16 5 3 14 -15 21 -40 17 -61 55 -91 104 -84 33 5 37 3
32 -14 -2 -10 3 -26 11 -35 9 -8 16 -19 16 -23 0 -4 23 -43 51 -85 59 -90 70
-127 62 -218 -4 -52 -1 -79 16 -126 25 -70 27 -150 6 -219 -8 -27 -15 -78 -15
-113 0 -49 -6 -75 -26 -113 l-26 -49 17 -58 c9 -32 17 -58 16 -58 0 0 4 -17 8
-38 6 -22 5 -39 -1 -43 -5 -3 -1 -15 9 -27 12 -15 13 -18 2 -9 -35 26 -52
-117 -23 -193 31 -82 44 -142 49 -235 4 -52 11 -124 16 -160 10 -69 13 -100
24 -246 l8 -91 -39 -24 c-29 -17 -54 -24 -93 -24 -50 0 -57 3 -76 32 -15 21
-24 54 -28 105 -9 99 -38 203 -81 292 -19 40 -44 110 -56 154 -31 123 -90 285
-111 303 -17 15 -22 12 -88 -52 -66 -65 -70 -70 -76 -126 -4 -32 -13 -80 -21
-108 -7 -27 -15 -93 -18 -146 -3 -56 -13 -116 -23 -145 -21 -54 -31 -60 -194
-109 -101 -30 -162 -32 -209 -6 -61 32 -48 83 33 135 30 19 67 50 82 68 26 31
27 36 21 108 -3 41 -11 91 -16 110 -19 67 -12 164 16 227 48 106 72 171 79
215 4 24 22 76 41 116 33 70 34 77 34 191 l0 118 -51 23 c-79 37 -95 75 -92
219 3 129 12 163 64 242 76 114 158 274 159 307 0 54 59 132 125 166 42 22 94
20 134 -5z m2408 -191 c-3 -8 -6 -5 -6 6 -1 11 2 17 5 13 3 -3 4 -12 1 -19z
m-30 -34 c-3 -3 -12 -4 -19 -1 -8 3 -5 6 6 6 11 1 17 -2 13 -5z m80 0 c-3 -3
-12 -4 -19 -1 -8 3 -5 6 6 6 11 1 17 -2 13 -5z m-50 -46 c-3 -8 -6 -5 -6 6 -1
11 2 17 5 13 3 -3 4 -12 1 -19z m-786 -693 c325 -34 504 -75 777 -177 139 -51
259 -106 802 -365 80 -38 148 -70 153 -71 4 -1 39 -18 77 -37 38 -19 72 -35
75 -35 3 1 40 -17 83 -40 43 -22 80 -40 83 -40 4 0 73 -32 155 -71 82 -39 201
-95 264 -125 63 -30 153 -73 200 -96 47 -23 91 -43 99 -44 8 -2 18 -9 22 -16
5 -7 9 -9 9 -5 0 5 30 -8 67 -27 37 -20 73 -36 80 -36 6 0 33 -18 59 -41 40
-35 52 -40 80 -36 26 4 52 -4 118 -37 47 -24 88 -41 91 -38 3 3 5 0 5 -6 0 -7
4 -11 8 -9 11 3 174 -74 183 -86 14 -20 23 -8 43 60 12 39 25 75 30 80 5 5 7
1 3 -9 -4 -10 -2 -18 3 -18 6 0 10 2 10 4 0 2 3 12 6 21 4 9 3 15 -2 14 -22
-4 -23 4 -3 42 42 83 70 94 129 49 l24 -18 -30 -29 c-56 -52 -61 -68 -68 -213
-3 -74 -2 -162 3 -195 13 -88 -9 -213 -55 -310 -31 -64 -35 -81 -26 -96 15
-23 15 -73 1 -119 -5 -19 -12 -46 -15 -59 -3 -13 -12 -37 -20 -52 -8 -16 -14
-31 -14 -34 0 -3 -7 -22 -16 -43 -8 -20 -17 -44 -19 -53 -6 -29 -56 -122 -92
-172 -33 -44 -38 -48 -75 -45 -28 1 -49 11 -70 30 -28 26 -30 33 -25 76 3 26
8 59 11 75 11 47 66 194 82 213 10 13 9 4 -5 -31 l-19 -50 39 -2 c37 -1 39 0
57 50 45 122 47 128 36 144 -19 30 -29 24 -59 -32 -33 -61 -56 -76 -27 -17 14
26 17 45 11 65 -10 36 -2 57 20 57 9 0 26 16 38 36 l20 36 -189 94 c-104 52
-193 92 -197 89 -5 -2 -14 -18 -21 -35 -22 -53 -40 -33 -64 70 -13 55 -35 89
-60 90 -4 0 -6 -7 -2 -15 3 -8 3 -15 1 -15 -2 0 -45 19 -95 42 -75 34 -95 40
-110 30 -16 -10 -19 -6 -29 32 -7 27 -20 50 -35 60 -35 22 -44 20 -48 -10 l-3
-26 -48 37 c-43 33 -67 38 -67 14 0 -5 25 -21 57 -34 31 -14 54 -28 51 -30 -3
-3 -30 6 -60 19 -50 22 -56 28 -63 63 -8 49 -28 79 -55 86 -16 4 -24 1 -27
-14 -7 -25 -10 -24 -62 11 -30 19 -49 26 -56 20 -15 -13 -25 -2 -25 26 0 24
-42 64 -67 64 -11 0 -13 -7 -9 -24 3 -14 2 -27 -2 -30 -11 -7 -112 29 -126 45
-15 15 26 3 77 -23 59 -29 54 -16 -7 25 -32 21 -58 32 -61 27 -10 -16 -25 -1
-25 26 0 17 -10 30 -32 44 -42 25 -52 25 -45 0 7 -28 -9 -25 -55 11 -21 17
-41 29 -44 26 -11 -10 7 -27 54 -52 47 -26 28 -25 -35 1 -26 11 -33 20 -33 43
0 16 -10 39 -25 55 -29 31 -65 35 -65 7 0 -30 -13 -33 -63 -14 -42 15 -46 20
-52 59 -7 47 -17 59 -58 69 -22 6 -27 4 -27 -10 0 -16 -2 -16 -25 -1 -14 9
-36 23 -49 32 -15 10 -26 11 -30 5 -4 -6 20 -24 54 -41 33 -17 60 -32 60 -35
0 -6 -103 37 -117 49 -7 6 -14 24 -17 40 -8 45 -66 78 -66 37 0 -13 -6 -19
-19 -18 -11 0 -18 4 -16 7 6 10 -85 51 -96 44 -5 -3 -17 0 -25 7 -9 8 -11 15
-5 19 17 10 -22 72 -58 95 -50 31 -216 157 -219 167 -2 4 -10 8 -17 8 -7 0
-15 4 -17 8 -1 5 -40 35 -85 69 -46 33 -80 63 -76 66 3 4 0 7 -9 7 -8 0 -30
14 -48 30 -19 17 -68 52 -110 77 -41 26 -136 86 -210 134 -97 62 -177 104
-285 148 -82 34 -158 63 -168 65 -9 1 -23 8 -29 14 -16 16 -4 16 173 -3z
m4082 -1162 c-7 -2 -21 -2 -30 0 -10 3 -4 5 12 5 17 0 24 -2 18 -5z m502 -22
c3 -5 1 -12 -5 -16 -5 -3 -10 1 -10 9 0 18 6 21 15 7z m515 -182 c0 -10 5 -19
11 -19 6 0 9 -7 5 -15 -3 -8 -2 -15 2 -15 4 0 8 -15 9 -33 2 -30 1 -28 -21 19
-36 78 -40 95 -22 88 9 -3 16 -15 16 -25z m-2815 -80 c25 -12 44 -23 42 -25
-6 -6 -96 27 -103 37 -9 15 13 10 61 -12z m3000 -158 c3 -19 2 -21 -10 -11 -8
7 -15 22 -15 33 0 27 19 10 25 -22z m-5551 -30 c17 -19 17 -19 -2 -14 -12 3
-23 11 -26 19 -8 20 8 17 28 -5z m5646 -53 c0 -5 -10 -2 -23 7 -13 8 -27 12
-31 8 -4 -5 -6 -3 -5 2 2 6 -3 21 -10 34 -12 21 -8 20 28 -9 23 -18 41 -37 41
-42z m-5245 44 c-3 -3 -11 0 -18 7 -9 10 -8 11 6 5 10 -3 15 -9 12 -12z m-30
-22 c-3 -5 -16 -10 -28 -10 -18 0 -19 2 -7 10 20 13 43 13 35 0z m86 -26 l23
-29 -25 23 c-14 12 -30 22 -37 22 -6 0 -13 4 -16 8 -3 5 4 8 14 7 11 -1 29
-14 41 -31z m2583 -15 c104 -59 101 -57 93 -65 -6 -6 -87 31 -97 45 -3 3 -22
15 -43 26 -37 19 -67 45 -52 45 4 0 48 -23 99 -51z m-2656 3 c-1 -4 -19 -4
-38 -1 -30 5 -31 7 -8 8 15 0 30 6 34 13 6 9 9 9 12 0 2 -7 2 -15 0 -20z
m5232 -57 c0 -22 -4 -45 -8 -52 -4 -7 -8 17 -8 52 0 35 4 59 8 52 4 -7 8 -30
8 -52z m115 25 c9 -16 13 -30 11 -30 -3 0 -12 14 -21 30 -9 17 -13 30 -11 30
3 0 12 -13 21 -30z m-5230 -20 c3 -5 1 -10 -4 -10 -6 0 -11 5 -11 10 0 6 2 10
4 10 3 0 8 -4 11 -10z m4875 -5 c10 -12 10 -15 -3 -15 -8 0 -17 7 -21 15 -3 8
-2 15 3 15 5 0 14 -7 21 -15z m329 -27 c16 -33 18 -45 8 -57 -7 -8 -7 -12 -1
-9 5 4 15 -6 21 -23 9 -24 8 -31 -5 -40 -15 -9 -14 -10 3 -4 45 15 53 14 58
-11 2 -13 1 -24 -4 -24 -4 0 -8 -15 -8 -32 0 -55 -4 -68 -17 -68 -10 0 -12
-11 -7 -45 5 -37 3 -45 -10 -45 -16 0 -13 -28 8 -65 14 -25 14 -77 -1 -82 -6
-2 -11 2 -11 9 -1 7 -12 42 -25 78 -19 52 -24 83 -24 157 1 50 -2 89 -6 86 -5
-2 -8 2 -8 10 0 8 7 17 15 21 8 3 12 12 9 21 -4 8 -1 22 6 30 11 13 10 14 -4
9 -13 -5 -16 1 -16 32 0 22 -7 48 -15 58 -14 19 -12 36 5 36 4 0 17 -19 29
-42z m-6024 11 c5 -5 -5 -4 -23 2 -17 6 -32 13 -32 16 0 7 43 -8 55 -18z
m6073 -24 c-3 -3 -9 2 -12 12 -6 14 -5 15 5 6 7 -7 10 -15 7 -18z m133 -57
c10 -21 19 -45 19 -55 0 -10 -13 6 -28 34 -15 29 -35 62 -44 73 -27 31 -21 37
8 9 14 -13 35 -41 45 -61z m-6226 62 c3 -6 -1 -7 -9 -4 -18 7 -21 14 -7 14 6
0 13 -4 16 -10z m6120 -39 c2 -12 0 -19 -6 -16 -5 4 -7 11 -4 16 4 5 1 9 -5 9
-6 0 -8 5 -5 11 9 13 15 7 20 -20z m-5506 -2 c-16 -10 -23 -4 -14 10 3 6 11 8
17 5 6 -4 5 -9 -3 -15z m5124 -9 c3 -11 1 -20 -4 -20 -5 0 -9 2 -9 4 0 2 -3
11 -6 20 -3 9 -2 16 4 16 5 0 12 -9 15 -20z m-4876 -22 c-3 -7 -5 -2 -5 12 0
14 2 19 5 13 2 -7 2 -19 0 -25z m-387 17 c0 -2 -20 -18 -45 -35 -25 -17 -45
-27 -45 -21 0 5 8 12 19 16 10 3 26 14 36 25 17 18 35 26 35 15z m5481 -105
c-3 -8 -9 3 -13 25 -5 21 -5 46 -1 55 8 18 21 -57 14 -80z m-215 18 c3 -65 10
-134 16 -144 6 -9 20 -81 23 -120 1 -11 4 -24 6 -30 3 -5 6 -25 7 -44 l1 -35
-10 30 c-5 17 -12 38 -14 48 -2 9 -6 21 -9 25 -3 5 -7 19 -10 33 -3 13 -9 37
-12 53 -6 23 -4 27 7 21 8 -5 6 1 -4 12 -28 32 -38 80 -21 98 9 8 11 15 6 15
-6 0 -9 8 -7 18 2 9 4 25 4 35 2 31 16 18 17 -15z m-4560 -77 c19 -39 32 -148
16 -121 -6 8 -12 31 -15 50 -6 41 -31 102 -59 145 -18 28 -17 27 11 -4 17 -19
38 -51 47 -70z m4773 -45 c-9 -8 -10 -8 -5 1 3 6 2 14 -4 18 -5 3 -10 12 -10
18 0 7 4 6 10 -3 7 -11 10 -7 12 20 l1 35 4 -39 c3 -22 -1 -43 -8 -50z m-4997
22 c18 -28 35 -82 19 -58 -10 13 -11 13 -11 0 -1 -26 -23 21 -25 52 -2 34 -1
34 17 6z m5313 -53 c4 -39 9 -73 12 -77 2 -5 0 -8 -5 -8 -10 0 -22 70 -22 128
0 56 8 33 15 -43z m-5800 15 c-2 -11 2 -23 10 -27 10 -6 8 -12 -8 -24 -22 -16
-22 -16 -18 27 1 24 7 44 11 44 5 0 7 -9 5 -20z m5523 -82 c10 -43 16 -78 12
-78 -7 0 -41 136 -39 160 1 20 5 8 27 -82z m-5141 40 c-13 -8 -27 -1 -27 13 0
6 5 7 10 4 6 -3 10 2 11 12 0 16 1 16 8 -2 5 -12 4 -23 -2 -27z m5113 -111 c6
-11 10 -21 7 -23 -2 -2 -12 13 -22 33 -10 21 -22 46 -26 55 -5 10 -9 28 -9 40
1 13 9 0 20 -32 11 -30 24 -63 30 -73z m328 -19 c9 -50 23 -182 26 -232 1 -5
48 -30 106 -55 58 -25 119 -54 135 -63 17 -9 58 -31 93 -48 59 -29 63 -30 87
-14 14 9 25 20 25 25 0 12 47 11 55 -1 4 -6 10 -8 14 -6 4 3 13 -5 19 -17 16
-33 45 -222 48 -312 2 -44 6 -106 10 -137 l7 -58 -118 -116 -118 -116 19 -37
c10 -20 20 -39 22 -44 2 -4 -7 -2 -21 4 -14 6 -24 18 -22 28 3 21 -13 41 -44
53 -18 6 -22 11 -12 17 9 6 -1 20 -36 51 -26 24 -40 37 -30 30 9 -7 17 -10 17
-7 0 2 -24 23 -54 46 -40 31 -53 47 -49 61 4 13 -6 27 -34 47 -21 15 -38 35
-37 43 0 8 -13 27 -30 43 -19 17 -24 25 -12 21 16 -6 17 -4 8 12 -6 11 -20 28
-31 38 -12 11 -21 31 -21 45 0 20 2 23 10 11 9 -13 10 -13 10 0 -1 20 -25 51
-34 43 -4 -4 -4 0 -1 8 3 9 -1 22 -10 29 -8 7 -15 16 -15 21 0 4 -14 32 -31
60 -23 40 -27 54 -17 60 7 4 15 3 19 -3 5 -7 8 -7 13 1 5 7 15 7 33 0 30 -11
46 4 37 34 -3 10 -8 35 -10 55 -2 20 -9 57 -14 82 -6 25 -12 65 -14 90 -2 25
-7 63 -10 85 -10 55 -12 185 -5 185 4 0 12 -28 17 -62z m-5850 41 c-2 -6 -8
-10 -13 -10 -5 0 -11 4 -13 10 -2 6 4 11 13 11 9 0 15 -5 13 -11z m5632 -138
c7 -15 7 -19 -5 -17 -20 3 -28 13 -20 25 9 15 13 14 25 -8z m-260 -25 c0 -8
-4 -17 -8 -20 -4 -2 -8 4 -8 15 0 10 4 19 8 19 4 0 8 -6 8 -14z m221 -16 c6
-16 15 -27 20 -24 5 3 9 -2 9 -12 0 -13 -3 -14 -14 -5 -15 12 -39 71 -30 71 3
0 10 -13 15 -30z m-5481 -11 c0 -11 -4 -18 -10 -14 -5 3 -7 12 -3 20 7 21 13
19 13 -6z m10366 -31 c4 -6 -2 -19 -14 -29 -28 -22 -27 -27 1 -32 19 -4 18 -4
-5 -6 -21 -1 -28 4 -28 18 0 10 7 21 15 25 8 3 15 10 15 17 0 6 -7 9 -15 5 -8
-3 -15 -1 -15 4 0 14 37 12 46 -2z m-5046 -237 c0 -4 -6 -8 -14 -8 -8 0 -12 6
-9 14 5 13 23 9 23 -6z m44 -86 c3 -8 1 -15 -4 -15 -6 0 -10 7 -10 15 0 8 2
15 4 15 2 0 6 -7 10 -15z m307 -139 c1 -6 1 -14 0 -18 0 -4 27 -32 62 -64 34
-31 51 -51 37 -44 l-25 13 19 -22 c17 -18 17 -21 3 -21 -16 0 -77 52 -77 66 0
14 -48 62 -55 56 -5 -4 -5 -2 -2 4 4 6 -1 20 -9 30 -9 10 -12 12 -8 4 4 -8 3
-12 -1 -8 -5 5 -10 20 -11 34 -2 15 -17 41 -33 58 -17 18 -31 37 -31 43 0 13
130 -116 131 -131z m-6461 124 c0 -5 -2 -10 -4 -10 -3 0 -8 5 -11 10 -3 6 -1
10 4 10 6 0 11 -4 11 -10z m6175 -48 c-8 -8 -25 10 -25 26 0 13 2 13 14 -4 8
-10 13 -21 11 -22z m65 -79 c0 -2 16 -23 35 -46 19 -22 33 -42 31 -45 -9 -8
-23 8 -75 85 -36 53 -43 67 -22 45 17 -18 31 -36 31 -39z m-5508 -132 c3 -3 0
-12 -7 -18 -11 -10 -17 -10 -29 3 -23 22 -20 36 7 29 12 -4 25 -10 29 -14z
m10008 -111 l190 0 0 -50 0 -50 -190 0 -190 0 0 -30 c0 -16 -4 -30 -10 -30 -5
0 -10 10 -10 23 l0 22 -247 0 -248 0 -57 27 c-32 15 -58 31 -58 36 0 5 15 12
33 15 17 4 70 14 117 22 75 15 119 17 210 13 14 -1 76 2 138 6 l112 8 0 42 c0
64 15 66 18 2 l3 -56 189 0z m-4313 84 c-3 -3 -12 -4 -19 -1 -8 3 -5 6 6 6 11
1 17 -2 13 -5z m4728 -34 c0 -26 -5 -36 -19 -38 -10 -2 -23 2 -30 8 -8 9 -6
11 12 5 23 -7 31 9 10 19 -10 5 -10 7 0 12 17 8 15 27 -3 20 -8 -3 -15 -1 -15
5 0 6 10 9 23 7 18 -2 22 -9 22 -38z m-5044 -27 c13 -16 12 -17 -3 -4 -10 7
-18 15 -18 17 0 8 8 3 21 -13z m410 -97 c24 -39 24 -48 2 -44 -16 3 -41 43
-47 74 -1 6 -15 24 -31 39 -23 20 -19 19 14 -6 24 -18 52 -46 62 -63z m-6921
-51 c0 -8 -4 -15 -10 -15 -5 0 -7 7 -4 15 4 8 8 15 10 15 2 0 4 -7 4 -15z
m7110 -35 c8 -5 11 -10 5 -10 -5 0 -17 5 -25 10 -8 5 -10 10 -5 10 6 0 17 -5
25 -10z m3917 -187 c-2 -21 -4 -4 -4 37 0 41 2 58 4 38 2 -21 2 -55 0 -75z
m-4084 80 c-7 -2 -19 -2 -25 0 -7 3 -2 5 12 5 14 0 19 -2 13 -5z m3313 -73
c10 0 15 13 16 43 l1 42 4 -42 c3 -28 9 -43 18 -43 9 0 15 15 18 43 l4 42 1
-47 2 -48 -45 0 -45 0 2 48 1 47 4 -42 c3 -29 9 -43 19 -43z m599 53 l7 -28
14 28 c8 15 19 25 24 22 13 -8 13 -85 0 -85 -5 0 -10 10 -10 23 -1 20 -2 20
-11 4 -8 -14 -14 -16 -25 -6 -12 10 -13 9 -8 -5 3 -9 1 -16 -5 -16 -6 0 -11
19 -11 45 0 50 14 60 25 18z m115 -18 c0 -41 -2 -45 -24 -45 -21 0 -24 5 -24
45 -1 41 1 45 23 45 23 0 25 -4 25 -45z m141 5 c12 0 19 7 19 20 0 11 5 20 10
20 6 0 10 -20 10 -45 0 -25 -4 -45 -10 -45 -5 0 -10 9 -10 20 0 29 -37 27 -43
-2 -2 -13 -4 0 -4 27 0 28 2 40 4 28 3 -15 12 -23 24 -23z m-946 0 c10 0 11
-5 2 -25 -7 -15 -18 -23 -26 -20 -7 3 -21 0 -29 -7 -13 -11 -15 -10 -9 6 4 10
2 25 -4 32 -9 11 -8 14 4 14 8 0 18 8 22 18 6 16 7 16 16 0 6 -10 16 -18 24
-18z m533 -19 c-2 -20 -8 -26 -28 -26 -30 0 -40 33 -15 51 25 19 47 6 43 -25z
m542 13 c0 -8 5 -14 10 -14 6 0 10 7 10 15 0 8 5 15 10 15 6 0 10 -13 10 -30
0 -16 -4 -30 -10 -30 -5 0 -10 4 -10 9 0 15 -38 20 -44 5 -8 -22 -44 -17 -52
8 -4 14 -1 25 10 33 20 15 66 7 66 -11z m-868 -14 c-5 -36 -22 -40 -22 -6 0
13 -6 27 -12 29 -7 3 -1 6 13 6 23 1 25 -2 21 -29z m61 7 c11 -4 17 -1 17 8 0
8 5 15 10 15 6 0 10 -13 10 -30 0 -28 -3 -30 -35 -30 -33 0 -35 2 -35 33 0 17
4 27 8 21 4 -6 15 -13 25 -17z m77 11 c0 26 15 10 16 -18 1 -23 -2 -28 -11
-20 -9 8 -15 7 -18 -2 -3 -7 -6 3 -6 22 -1 26 2 31 9 20 6 -10 10 -11 10 -2z
m95 -8 c7 0 16 6 18 13 3 6 6 -4 6 -23 0 -28 -2 -32 -10 -17 -5 9 -14 17 -19
17 -5 0 -11 -8 -13 -17 -3 -10 -5 -2 -5 17 0 19 2 29 5 23 2 -7 11 -13 18 -13z
m176 7 c-7 -7 -7 -16 0 -29 6 -12 6 -18 -1 -18 -5 0 -10 6 -10 13 0 8 -4 7
-10 -3 -9 -13 -11 -13 -20 0 -6 10 -10 11 -10 3 0 -7 -5 -13 -10 -13 -7 0 -7
6 -1 18 7 13 7 22 0 29 -7 7 4 10 31 10 27 0 38 -3 31 -10z m542 -10 c27 -10
21 -37 -8 -37 -22 0 -25 4 -25 33 0 17 4 27 8 21 4 -6 15 -13 25 -17z m-758 3
c3 -5 -3 -10 -15 -10 -12 0 -18 5 -15 10 3 6 10 10 15 10 5 0 12 -4 15 -10z
m-3314 -30 c5 0 30 -10 54 -21 25 -12 48 -19 51 -16 3 2 18 -7 34 -22 30 -27
117 -197 107 -208 -4 -3 -14 11 -23 32 -29 69 -132 139 -239 162 -79 17 -106
36 -33 23 24 -5 46 -6 50 -4 3 2 9 -2 11 -8 3 -7 6 -8 6 -2 1 5 -6 19 -15 30
-13 16 -15 16 -10 2 3 -10 1 -18 -4 -18 -6 0 -10 12 -10 26 0 17 -4 23 -12 18
-8 -5 -7 -1 2 10 8 11 16 14 18 7 2 -6 8 -11 13 -11z m-114 -46 c-3 -3 -12 -4
-19 -1 -8 3 -5 6 6 6 11 1 17 -2 13 -5z m4406 -181 c-25 -5 -32 -23 -9 -23 8
0 17 -4 20 -9 3 -5 -6 -8 -19 -8 -20 0 -25 5 -25 23 0 20 5 24 28 23 23 -2 24
-2 5 -6z m-8514 -61 c-5 -2 -9 -13 -10 -25 -1 -20 -2 -20 -8 3 -10 35 -3 53
14 37 7 -7 9 -13 4 -15z m422 -31 c-3 -10 -6 -11 -9 -3 -2 7 -10 12 -18 12
-19 0 -18 9 3 33 18 19 18 18 24 -5 3 -12 3 -30 0 -37z m49 30 c0 -16 6 -32
13 -34 6 -3 -1 -5 -18 -5 -16 0 -24 2 -17 5 6 2 12 16 12 29 0 17 -4 23 -12
18 -7 -4 -8 -3 -4 4 13 21 26 13 26 -17z m63 19 c-27 -11 -30 -28 -5 -26 9 0
17 -6 17 -14 0 -21 -39 -19 -43 3 -5 22 15 47 37 46 11 0 9 -3 -6 -9z m552
-25 c0 -23 -4 -30 -20 -30 -21 0 -31 25 -21 51 11 28 41 12 41 -21z m123 12
c5 -22 -15 -47 -37 -46 -10 0 -7 4 9 11 l25 10 -22 9 c-13 4 -23 12 -23 17 0
28 43 27 48 -1z m717 -12 c0 -23 -4 -30 -20 -30 -21 0 -31 25 -21 51 11 28 41
12 41 -21z m6278 25 c-27 -11 -30 -28 -5 -26 9 0 17 -6 17 -14 0 -21 -39 -19
-43 3 -5 22 15 47 37 46 11 0 9 -3 -6 -9z m68 -49 c-3 -10 -6 -11 -9 -3 -2 7
-10 12 -18 12 -19 0 -18 9 3 33 18 19 18 18 24 -5 3 -12 3 -30 0 -37z m124 24
c0 -23 -4 -30 -20 -30 -21 0 -31 25 -21 51 11 28 41 12 41 -21z m45 -9 c-30
-49 -37 -46 -9 4 12 22 25 38 27 35 2 -2 -6 -20 -18 -39z m-8372 1 c2 -10 -4
-20 -15 -24 -10 -4 -21 -11 -25 -17 -4 -6 -8 5 -8 25 0 31 3 36 22 35 13 -1
24 -9 26 -19z m48 14 c-18 -7 -18 -8 -2 -14 21 -8 12 -27 -12 -26 -14 0 -14 2
2 8 18 7 18 8 2 14 -21 8 -12 27 12 26 14 0 14 -2 -2 -8z m64 -1 c0 -5 -4 -10
-10 -10 -5 0 -10 5 -10 10 0 6 5 10 10 10 6 0 10 -4 10 -10z m520 -12 c6 -17
9 -18 9 -6 1 9 5 20 11 23 6 4 7 -2 2 -15 -10 -27 -24 -27 -34 -1 -10 28 0 27
12 -1z m91 -5 c7 -20 5 -23 -16 -23 -28 0 -33 17 -8 27 15 6 15 7 -3 15 -18 7
-18 8 0 5 10 -1 22 -12 27 -24z m59 16 c0 -6 -5 -7 -10 -4 -6 3 -14 -4 -19
-17 l-10 -23 0 25 c-1 19 4 26 19 27 11 1 20 -3 20 -8z m50 1 c0 -5 -4 -10
-10 -10 -5 0 -10 5 -10 10 0 6 5 10 10 10 6 0 10 -4 10 -10z m429 -17 l-1 -28
-8 25 -8 25 -2 -25 -3 -25 -5 25 -5 25 -8 -25 -7 -25 -1 28 c-1 22 3 27 24 27
21 0 25 -5 24 -27z m47 18 c-18 -7 -18 -8 -2 -14 21 -8 12 -27 -12 -26 -14 0
-14 2 2 8 18 7 18 8 2 14 -21 8 -12 27 12 26 14 0 14 -2 -2 -8z m192 -14 c2
-10 -4 -20 -15 -24 -10 -4 -21 -11 -25 -17 -4 -6 -8 5 -8 25 0 31 3 36 22 35
13 -1 24 -9 26 -19z m51 -4 c-1 -22 -2 -23 -6 -8 -3 11 -10 23 -17 27 -7 5 -5
8 7 8 12 0 17 -7 16 -27z m70 -1 c-2 -23 -2 -24 -6 -4 -2 12 -9 22 -14 22 -5
0 -14 -10 -19 -22 -9 -23 -9 -23 -9 2 -1 20 4 26 24 28 21 1 25 -2 24 -26z
m59 -4 c-2 -21 -9 -33 -18 -34 -9 0 -10 1 -2 3 6 3 12 8 12 13 0 5 -6 7 -14 4
-8 -3 -17 0 -21 6 -11 18 3 40 25 40 18 0 21 -5 18 -32z m52 22 c0 -5 -4 -10
-10 -10 -5 0 -10 5 -10 10 0 6 5 10 10 10 6 0 10 -4 10 -10z m249 -17 l-1 -28
-8 25 -8 25 -2 -25 -3 -25 -5 25 -5 25 -8 -25 -7 -25 -1 28 c-1 22 3 27 24 27
21 0 25 -5 24 -27z m47 18 c-18 -7 -18 -8 -2 -14 21 -8 12 -27 -12 -26 -14 0
-14 2 2 8 18 7 18 8 2 14 -21 8 -12 27 12 26 14 0 14 -2 -2 -8z m5855 -31 c5
0 14 10 19 23 9 22 9 22 9 -3 1 -20 -4 -26 -24 -28 -21 -1 -25 2 -24 26 2 23
2 24 6 5 2 -13 9 -23 14 -23z m87 17 c2 -10 -4 -20 -15 -24 -10 -4 -21 -11
-25 -17 -4 -6 -8 5 -8 25 0 31 3 36 22 35 13 -1 24 -9 26 -19z m52 13 c0 -5
-4 -10 -10 -10 -5 0 -10 5 -10 10 0 6 5 10 10 10 6 0 10 -4 10 -10z m416 1
c-18 -7 -18 -8 -2 -14 21 -8 12 -27 -12 -26 -14 0 -14 2 2 8 18 7 18 8 2 14
-21 8 -12 27 12 26 14 0 14 -2 -2 -8z m-8326 -31 c0 -5 -4 -10 -10 -10 -5 0
-10 5 -10 10 0 6 5 10 10 10 6 0 10 -4 10 -10z m720 0 c0 -5 -4 -10 -10 -10
-5 0 -10 5 -10 10 0 6 5 10 10 10 6 0 10 -4 10 -10z m240 0 c0 -5 -4 -10 -10
-10 -5 0 -10 5 -10 10 0 6 5 10 10 10 6 0 10 -4 10 -10z m660 0 c0 -5 -4 -10
-10 -10 -5 0 -10 5 -10 10 0 6 5 10 10 10 6 0 10 -4 10 -10z m6290 0 c0 -5 -4
-10 -10 -10 -5 0 -10 5 -10 10 0 6 5 10 10 10 6 0 10 -4 10 -10z m240 0 c0 -5
-4 -10 -10 -10 -5 0 -10 5 -10 10 0 6 5 10 10 10 6 0 10 -4 10 -10z m-8343
-112 c-2 -13 -4 -5 -4 17 -1 22 1 32 4 23 2 -10 2 -28 0 -40z m498 17 c0 -23
-4 -30 -20 -30 -21 0 -31 25 -21 51 11 28 41 12 41 -21z m64 28 c14 11 14 10
2 -5 -10 -14 -11 -21 -2 -32 8 -9 8 -16 2 -20 -5 -4 -13 -2 -16 4 -5 8 -12 7
-23 -2 -15 -12 -16 -11 -3 5 10 13 11 20 2 30 -13 16 -2 32 13 17 6 -6 15 -5
25 3z m222 -16 c16 4 19 0 18 -23 -1 -24 -2 -25 -6 -6 -2 12 -9 22 -14 22 -5
0 -14 -10 -19 -22 -7 -19 -9 -17 -8 17 0 22 2 33 5 24 3 -11 11 -15 24 -12z
m127 -6 c14 11 15 11 5 -1 -10 -11 -10 -17 0 -29 10 -14 10 -14 -5 -3 -13 10
-17 10 -21 0 -3 -7 -5 5 -5 27 0 23 3 30 5 17 4 -20 7 -21 21 -11z m307 -6 c0
-23 -4 -30 -20 -30 -21 0 -31 25 -21 51 11 28 41 12 41 -21z m64 28 c14 11 14
10 2 -5 -10 -14 -11 -21 -2 -32 8 -9 8 -16 2 -20 -5 -4 -13 -2 -16 4 -5 8 -12
7 -23 -2 -15 -12 -16 -11 -3 5 10 13 11 20 2 30 -13 16 -2 32 13 17 6 -6 15
-5 25 3z m416 -4 c4 -5 -1 -19 -10 -29 -15 -17 -15 -19 2 -23 14 -4 14 -5 -4
-6 -26 -1 -30 11 -8 29 20 16 19 27 -2 33 -16 4 -16 5 -1 6 9 0 20 -4 23 -10z
m60 -24 c0 -23 -4 -30 -20 -30 -21 0 -31 25 -21 51 11 28 41 12 41 -21z m60 0
c0 -23 -4 -30 -20 -30 -21 0 -31 25 -21 51 11 28 41 12 41 -21z m60 0 c0 -23
-4 -30 -20 -30 -21 0 -31 25 -21 51 11 28 41 12 41 -21z m60 24 c4 -5 -1 -19
-10 -29 -15 -17 -15 -19 2 -23 14 -4 14 -5 -4 -6 -26 -1 -30 11 -8 29 20 16
19 27 -2 33 -16 4 -16 5 -1 6 9 0 20 -4 23 -10z m53 4 c-22 -6 -23 -12 -1 -28
19 -14 9 -36 -15 -34 -15 1 -15 2 1 6 21 5 23 23 2 23 -8 0 -15 9 -15 20 0 14
6 20 23 19 16 -1 18 -2 5 -6z m72 2 c0 -2 -9 -19 -20 -37 -11 -18 -20 -28 -20
-23 0 6 7 20 15 32 14 20 13 22 -2 26 -14 4 -13 5 5 6 12 0 22 -1 22 -4z
m5990 -29 c0 -28 -3 -33 -22 -32 -30 1 -37 36 -9 43 12 3 21 9 21 14 0 5 2 9
5 9 3 0 5 -15 5 -34z m163 24 c-27 -11 -30 -28 -5 -26 9 0 17 -6 17 -14 0 -21
-39 -19 -43 3 -5 22 15 47 37 46 11 0 9 -3 -6 -9z m68 -49 c-3 -10 -6 -11 -9
-3 -2 7 -10 12 -18 12 -19 0 -18 9 3 33 18 19 18 18 24 -5 3 -12 3 -30 0 -37z
m124 24 c0 -23 -4 -30 -20 -30 -21 0 -31 25 -21 51 11 28 41 12 41 -21z m45
-9 c-30 -49 -37 -46 -9 4 12 22 25 38 27 35 2 -2 -6 -20 -18 -39z m-8372 1 c4
-20 -25 -34 -40 -19 -15 15 -1 44 19 40 10 -2 19 -11 21 -21z m48 14 c-18 -7
-18 -8 -2 -14 21 -8 12 -27 -12 -26 -14 0 -14 2 2 8 18 7 18 8 2 14 -21 8 -12
27 12 26 14 0 14 -2 -2 -8z m60 0 c-18 -7 -18 -8 -2 -14 21 -8 12 -27 -12 -26
-14 0 -14 2 2 8 18 7 18 8 2 14 -21 8 -12 27 12 26 14 0 14 -2 -2 -8z m64 -1
c0 -5 -4 -10 -10 -10 -5 0 -10 5 -10 10 0 6 5 10 10 10 6 0 10 -4 10 -10z
m473 3 c-13 -2 -23 -11 -23 -19 0 -8 10 -15 23 -15 18 -1 19 -2 3 -6 -10 -3
-23 0 -28 5 -17 17 -1 42 24 41 l23 -2 -22 -4z m135 -16 c4 -20 -25 -34 -40
-19 -15 15 -1 44 19 40 10 -2 19 -11 21 -21z m120 6 c2 -8 -6 -13 -20 -14 -23
-1 -23 -1 2 -9 23 -7 23 -8 3 -9 -25 -1 -37 13 -29 35 7 18 37 15 44 -3z m52
7 c0 -5 -4 -10 -10 -10 -5 0 -10 5 -10 10 0 6 5 10 10 10 6 0 10 -4 10 -10z
m340 -12 c6 -17 9 -18 9 -6 1 9 5 20 11 23 6 4 7 -2 2 -15 -10 -27 -24 -27
-34 -1 -10 28 0 27 12 -1z m88 5 c2 -8 -6 -13 -20 -14 -23 -1 -23 -1 2 -9 23
-7 23 -8 3 -9 -25 -1 -37 13 -29 35 7 18 37 15 44 -3z m62 6 c0 -6 -5 -7 -10
-4 -6 3 -14 -4 -19 -17 l-10 -23 0 25 c-1 19 4 26 19 27 11 1 20 -3 20 -8z
m50 1 c0 -5 -4 -10 -10 -10 -5 0 -10 5 -10 10 0 6 5 10 10 10 6 0 10 -4 10
-10z m6343 3 c-13 -2 -23 -11 -23 -19 0 -8 10 -15 23 -15 18 -1 19 -2 3 -6
-10 -3 -23 0 -28 5 -17 17 -1 42 24 41 l23 -2 -22 -4z m76 -20 l-1 -28 -8 25
-8 25 -2 -25 -3 -25 -5 25 -5 25 -8 -25 -7 -25 -1 28 c-1 22 3 27 24 27 21 0
25 -5 24 -27z m111 17 c0 -5 -4 -10 -10 -10 -5 0 -10 5 -10 10 0 6 5 10 10 10
6 0 10 -4 10 -10z m416 1 c-18 -7 -18 -8 -2 -14 21 -8 12 -27 -12 -26 -14 0
-14 2 2 8 18 7 18 8 2 14 -21 8 -12 27 12 26 14 0 14 -2 -2 -8z m-8266 -31 c0
-5 -4 -10 -10 -10 -5 0 -10 5 -10 10 0 6 5 10 10 10 6 0 10 -4 10 -10z m780 0
c0 -5 -4 -10 -10 -10 -5 0 -10 5 -10 10 0 6 5 10 10 10 6 0 10 -4 10 -10z
m540 0 c0 -5 -4 -10 -10 -10 -5 0 -10 5 -10 10 0 6 5 10 10 10 6 0 10 -4 10
-10z m6530 0 c0 -5 -4 -10 -10 -10 -5 0 -10 5 -10 10 0 6 5 10 10 10 6 0 10
-4 10 -10z m240 0 c0 -5 -4 -10 -10 -10 -5 0 -10 5 -10 10 0 6 5 10 10 10 6 0
10 -4 10 -10z m-8331 -88 c-13 -5 -11 -30 4 -35 9 -4 9 -6 -1 -6 -14 -1 -32
38 -25 56 4 9 8 9 18 0 7 -7 9 -13 4 -15z m179 -1 c14 11 15 11 5 -1 -10 -11
-10 -17 0 -29 10 -14 10 -14 -5 -3 -13 10 -17 10 -21 0 -3 -7 -5 5 -5 27 0 23
3 30 5 17 4 -20 7 -21 21 -11z m175 19 c-27 -11 -30 -28 -5 -26 9 0 17 -6 17
-14 0 -21 -39 -19 -43 3 -5 22 15 47 37 46 11 0 9 -3 -6 -9z m68 -49 c-3 -10
-6 -11 -9 -3 -2 7 -10 12 -18 12 -19 0 -18 9 3 33 18 19 18 18 24 -5 3 -12 3
-30 0 -37z m124 24 c0 -23 -4 -30 -20 -30 -21 0 -31 25 -21 51 11 28 41 12 41
-21z m465 6 c0 -16 6 -32 13 -34 6 -3 -1 -5 -18 -5 -16 0 -24 2 -17 5 6 2 12
16 12 29 0 17 -4 23 -12 18 -7 -4 -8 -3 -4 4 13 21 26 13 26 -17z m120 0 c0
-16 6 -32 13 -34 6 -3 -1 -5 -18 -5 -16 0 -24 2 -17 5 6 2 12 16 12 29 0 17
-4 23 -12 18 -7 -4 -8 -3 -4 4 13 21 26 13 26 -17z m300 0 c0 -16 6 -32 13
-34 6 -3 -1 -5 -18 -5 -16 0 -24 2 -17 5 6 2 12 16 12 29 0 17 -4 23 -12 18
-7 -4 -8 -3 -4 4 13 21 26 13 26 -17z m135 -6 c0 -23 -4 -30 -20 -30 -21 0
-31 25 -21 51 11 28 41 12 41 -21z m780 0 c0 -23 -4 -30 -20 -30 -21 0 -31 25
-21 51 11 28 41 12 41 -21z m123 12 c5 -22 -15 -47 -37 -46 -10 0 -7 4 9 11
l25 10 -22 9 c-13 4 -23 12 -23 17 0 28 43 27 48 -1z m59 -9 c-2 -21 -8 -33
-17 -34 -9 -1 -10 1 -2 3 6 3 12 9 12 14 0 5 -6 9 -12 10 -10 0 -10 2 0 6 17
7 15 21 -5 26 -14 4 -13 5 4 6 20 1 22 -3 20 -31z m61 9 c5 -22 -15 -47 -37
-46 -10 0 -7 4 9 11 l25 10 -22 9 c-13 4 -23 12 -23 17 0 28 43 27 48 -1z
m5669 -29 c-2 -13 -4 -5 -4 17 -1 22 1 32 4 23 2 -10 2 -28 0 -40z m240 0 c-2
-13 -4 -5 -4 17 -1 22 1 32 4 23 2 -10 2 -28 0 -40z m-8438 5 c-1 -22 -2 -23
-6 -8 -3 11 -10 23 -17 27 -7 5 -5 8 7 8 12 0 17 -7 16 -27z m54 20 c-13 -2
-23 -11 -23 -19 0 -8 10 -15 23 -15 18 -1 19 -2 3 -6 -10 -3 -23 0 -28 5 -17
17 -1 42 24 41 l23 -2 -22 -4z m127 -3 c0 -5 -4 -10 -10 -10 -5 0 -10 5 -10
10 0 6 5 10 10 10 6 0 10 -4 10 -10z m476 1 c-18 -7 -18 -8 -2 -14 21 -8 12
-27 -12 -26 -14 0 -14 2 2 8 18 7 18 8 2 14 -21 8 -12 27 12 26 14 0 14 -2 -2
-8z m44 -13 c6 -17 9 -18 9 -6 1 9 5 20 11 23 6 4 7 -2 2 -15 -10 -27 -24 -27
-34 -1 -10 28 0 27 12 -1z m80 12 c0 -5 -4 -10 -10 -10 -5 0 -10 5 -10 10 0 6
5 10 10 10 6 0 10 -4 10 -10z m416 -26 c-7 -7 -14 -8 -22 0 -7 7 -8 14 0 22 7
7 14 8 22 0 7 -7 8 -14 0 -22z m433 9 l-1 -28 -8 25 -8 25 -2 -25 -3 -25 -5
25 -5 25 -8 -25 -7 -25 -1 28 c-1 22 3 27 24 27 21 0 25 -5 24 -27z m47 18
c-18 -7 -18 -8 -2 -14 21 -8 12 -27 -12 -26 -14 0 -14 2 2 8 18 7 18 8 2 14
-21 8 -12 27 12 26 14 0 14 -2 -2 -8z m224 -13 c6 -17 9 -18 9 -6 1 9 5 20 11
23 6 4 7 -2 2 -15 -10 -27 -24 -27 -34 -1 -10 28 0 27 12 -1z m91 -5 c7 -20 5
-23 -16 -23 -28 0 -33 17 -8 27 15 6 15 7 -3 15 -18 7 -18 8 0 5 10 -1 22 -12
27 -24z m59 16 c0 -6 -5 -7 -10 -4 -6 3 -14 -4 -19 -17 l-10 -23 0 25 c-1 19
4 26 19 27 11 1 20 -3 20 -8z m50 1 c0 -5 -4 -10 -10 -10 -5 0 -10 5 -10 10 0
6 5 10 10 10 6 0 10 -4 10 -10z m549 -17 l-1 -28 -8 25 -8 25 -2 -25 -3 -25
-5 25 -5 25 -8 -25 -7 -25 -1 28 c-1 22 3 27 24 27 21 0 25 -5 24 -27z m47 18
c-18 -7 -18 -8 -2 -14 21 -8 12 -27 -12 -26 -14 0 -14 2 2 8 18 7 18 8 2 14
-21 8 -12 27 12 26 14 0 14 -2 -2 -8z m5582 -14 c4 -20 -25 -34 -40 -19 -15
15 -1 44 19 40 10 -2 19 -11 21 -21z m45 16 c-13 -2 -23 -11 -23 -19 0 -8 10
-15 23 -15 18 -1 19 -2 3 -6 -10 -3 -23 0 -28 5 -17 17 -1 42 24 41 l23 -2
-22 -4z m78 -20 c7 -20 5 -23 -16 -23 -28 0 -33 17 -8 27 15 6 15 7 -3 15 -18
7 -18 8 0 5 10 -1 22 -12 27 -24z m-7138 10 c-7 -2 -19 -2 -25 0 -7 3 -2 5 12
5 14 0 19 -2 13 -5z m-1083 -23 c0 -5 -4 -10 -10 -10 -5 0 -10 5 -10 10 0 6 5
10 10 10 6 0 10 -4 10 -10z m240 0 c0 -5 -4 -10 -10 -10 -5 0 -10 5 -10 10 0
6 5 10 10 10 6 0 10 -4 10 -10z m360 0 c0 -5 -4 -10 -10 -10 -5 0 -10 5 -10
10 0 6 5 10 10 10 6 0 10 -4 10 -10z m240 0 c0 -5 -4 -10 -10 -10 -5 0 -10 5
-10 10 0 6 5 10 10 10 6 0 10 -4 10 -10z m420 0 c0 -5 -4 -10 -10 -10 -5 0
-10 5 -10 10 0 6 5 10 10 10 6 0 10 -4 10 -10z m660 0 c0 -5 -4 -10 -10 -10
-5 0 -10 5 -10 10 0 6 5 10 10 10 6 0 10 -4 10 -10z m240 0 c0 -5 -4 -10 -10
-10 -5 0 -10 5 -10 10 0 6 5 10 10 10 6 0 10 -4 10 -10z m-12462 -403 c3 -102
2 -107 -18 -107 -19 0 -20 6 -20 86 l0 86 -30 -7 c-25 -6 -30 -4 -30 13 0 13
11 23 33 30 60 19 62 17 65 -101z m155 100 c15 -10 17 -27 15 -107 l-3 -95
-48 -3 c-70 -5 -77 5 -77 110 0 83 2 89 23 98 32 13 71 12 90 -3z m170 0 c15
-10 17 -27 15 -107 l-3 -95 -48 -3 c-70 -5 -77 5 -77 110 0 83 2 89 23 98 32
13 71 12 90 -3z m820 0 c15 -10 17 -27 15 -107 l-3 -95 -48 -3 c-70 -5 -77 5
-77 110 0 83 2 89 23 98 32 13 71 12 90 -3z m-1353 -47 c0 -13 7 -20 20 -20
17 0 20 -7 20 -40 0 -33 -3 -40 -20 -40 -13 0 -20 -7 -20 -20 0 -16 -7 -20
-35 -20 -28 0 -35 4 -35 20 0 13 -7 20 -20 20 -17 0 -20 7 -20 40 0 33 3 40
20 40 13 0 20 7 20 20 0 16 7 20 35 20 28 0 35 -4 35 -20z m990 -35 c0 -46 -4
-60 -25 -80 -31 -32 -59 -32 -90 0 -21 20 -25 34 -25 80 l0 55 70 0 70 0 0
-55z m13020 15 c0 -5 -2 -10 -4 -10 -3 0 -8 5 -11 10 -3 6 -1 10 4 10 6 0 11
-4 11 -10z"/>
<path d="M10123 10730 c-17 -10 -38 -29 -47 -41 -15 -22 -14 -25 8 -49 18 -20
22 -31 16 -52 -6 -21 -5 -28 6 -28 14 0 20 -31 8 -43 -4 -4 -35 16 -70 43 -41
32 -64 45 -64 36 0 -23 59 -85 87 -92 14 -4 22 -12 19 -19 -3 -9 8 -16 34 -20
25 -4 40 -13 43 -25 6 -23 0 -30 -25 -30 -12 0 -18 8 -19 23 -1 21 -1 21 -9
-3 -7 -21 -8 -22 -9 -5 -2 18 -2 19 -12 3 -14 -24 -29 -23 -29 3 0 11 -4 18
-10 14 -5 -3 -7 -11 -4 -19 3 -7 -2 -13 -11 -13 -8 0 -15 5 -15 11 0 12 -20
-14 -20 -26 0 -4 70 -7 155 -7 88 0 155 4 155 10 0 9 -21 13 -47 10 -7 -1 -10
5 -7 13 3 8 1 17 -5 21 -6 3 -11 -2 -11 -12 0 -14 -8 -19 -31 -21 -29 -2 -30
-1 -27 30 2 25 7 32 20 30 12 -2 16 2 12 13 -4 9 0 15 10 15 21 0 96 73 96 94
0 12 -13 6 -52 -25 l-53 -42 -3 53 c-2 38 1 57 14 71 16 17 16 19 1 19 -10 0
-17 6 -17 13 0 6 -13 24 -28 39 l-28 27 -31 -19z m57 -120 c0 -94 -1 -100 -21
-100 -11 0 -17 -4 -14 -10 3 -5 2 -10 -4 -10 -5 0 -13 5 -16 10 -3 6 -1 10 4
10 7 0 11 30 11 80 l0 80 -25 -6 c-21 -5 -25 -3 -25 14 0 21 15 29 63 31 l27
1 0 -100z"/>
<path d="M10285 10441 c-3 -5 -1 -12 5 -16 5 -3 10 1 10 9 0 18 -6 21 -15 7z"/>
<path d="M9510 10705 c0 -8 5 -15 10 -15 6 0 10 7 10 15 0 8 -4 15 -10 15 -5
0 -10 -7 -10 -15z"/>
<path d="M9507 10664 c-8 -8 1 -24 14 -24 5 0 9 7 9 15 0 15 -12 20 -23 9z"/>
<path d="M436 10492 c-8 -13 11 -35 23 -28 16 10 14 36 -3 36 -8 0 -17 -4 -20
-8z"/>
<path d="M545 10470 c-3 -5 -1 -10 4 -10 6 0 11 5 11 10 0 6 -2 10 -4 10 -3 0
-8 -4 -11 -10z"/>
<path d="M9420 10460 c0 -29 4 -40 15 -40 11 0 15 11 15 40 0 29 -4 40 -15 40
-11 0 -15 -11 -15 -40z"/>
<path d="M9760 10460 c0 -29 4 -40 15 -40 11 0 15 11 15 40 0 29 -4 40 -15 40
-11 0 -15 -11 -15 -40z"/>
<path d="M13766 8055 c-4 -10 1 -15 14 -15 11 0 20 7 20 15 0 8 -6 15 -14 15
-8 0 -16 -7 -20 -15z"/>
<path d="M13865 8010 c3 -5 13 -10 21 -10 8 0 14 5 14 10 0 6 -9 10 -21 10
-11 0 -17 -4 -14 -10z"/>
<path d="M13972 7975 c1 -11 0 -25 -4 -30 -4 -6 -3 -17 1 -24 12 -19 51 4 51
29 0 21 -20 28 -20 8 -1 -7 -7 -2 -16 12 -12 21 -14 22 -12 5z"/>
<path d="M13877 7853 c-39 -30 -46 -43 -22 -43 8 0 15 5 15 11 0 5 4 8 9 4 6
-3 15 4 21 15 6 11 14 19 18 19 20 -3 33 2 27 11 -10 17 -30 11 -68 -17z"/>
<path d="M9835 7909 c-4 -6 -5 -12 -2 -15 2 -3 7 2 10 11 7 17 1 20 -8 4z"/>
<path d="M1045 7970 c-3 -5 -41 -10 -85 -10 l-78 0 10 -40 10 -40 64 0 c36 0
64 -4 64 -10 0 -6 -27 -10 -60 -10 -33 0 -60 -4 -60 -10 0 -17 116 -12 130 5
9 11 10 19 3 26 -12 12 -2 62 18 85 8 9 8 14 1 14 -6 0 -14 -4 -17 -10z m-16
-34 c-2 -33 -16 -42 -66 -44 -29 -1 -53 2 -53 6 0 4 -3 17 -6 29 -6 21 -3 22
60 21 40 -1 66 -6 65 -12z"/>
<path d="M900 7818 c0 -4 7 -8 15 -8 8 0 15 4 15 8 0 5 -7 9 -15 9 -8 0 -15
-4 -15 -9z"/>
<path d="M1010 7820 c0 -5 5 -10 11 -10 5 0 7 5 4 10 -3 6 -8 10 -11 10 -2 0
-4 -4 -4 -10z"/>
<path d="M430 7935 c0 -8 7 -15 15 -15 8 0 15 7 15 15 0 8 -7 15 -15 15 -8 0
-15 -7 -15 -15z"/>
<path d="M430 7870 c0 -11 7 -20 15 -20 8 0 15 9 15 20 0 11 -7 20 -15 20 -8
0 -15 -9 -15 -20z"/>
<path d="M570 7900 c0 -38 4 -50 15 -50 11 0 15 12 15 50 0 38 -4 50 -15 50
-11 0 -15 -12 -15 -50z"/>
<path d="M710 7900 c0 -38 4 -50 15 -50 11 0 15 12 15 50 0 38 -4 50 -15 50
-11 0 -15 -12 -15 -50z"/>
<path d="M11330 7914 c0 -8 5 -12 10 -9 6 3 10 10 10 16 0 5 -4 9 -10 9 -5 0
-10 -7 -10 -16z"/>
<path d="M11155 7841 c3 -6 -3 -14 -12 -20 -17 -10 -17 -10 0 -11 9 0 17 2 17
4 0 2 3 11 6 20 3 9 1 16 -6 16 -6 0 -9 -4 -5 -9z"/>
<path d="M10988 7743 c7 -3 16 -2 19 1 4 3 -2 6 -13 5 -11 0 -14 -3 -6 -6z"/>
<path d="M11110 7706 c0 -2 6 -9 14 -15 10 -9 16 -8 26 4 11 13 8 15 -14 15
-14 0 -26 -2 -26 -4z"/>
<path d="M11175 7700 c-3 -5 -1 -10 4 -10 6 0 11 5 11 10 0 6 -2 10 -4 10 -3
0 -8 -4 -11 -10z"/>
<path d="M11155 7670 c-3 -5 1 -10 10 -10 9 0 14 -4 11 -9 -3 -5 -15 -7 -26
-4 -14 4 -20 0 -20 -12 0 -14 3 -15 14 -6 11 9 16 9 22 0 5 -9 10 -7 15 7 4
10 8 25 8 32 1 14 -25 16 -34 2z"/>
<path d="M11096 7655 c-3 -8 -1 -15 3 -15 5 0 11 7 15 15 3 8 1 15 -3 15 -5 0
-11 -7 -15 -15z"/>
<path d="M12183 7736 c-16 -19 -4 -29 13 -11 8 7 14 16 14 19 0 10 -15 6 -27
-8z"/>
<path d="M12294 7732 c-15 -10 -14 -41 2 -35 7 2 12 13 11 24 -1 10 -1 19 -2
19 0 0 -5 -4 -11 -8z"/>
<path d="M12328 7733 c7 -3 16 -2 19 1 4 3 -2 6 -13 5 -11 0 -14 -3 -6 -6z"/>
<path d="M12375 7710 c-3 -5 -1 -10 5 -10 6 0 8 -5 5 -11 -5 -6 -11 -4 -19 7
-12 16 -42 12 -32 -4 2 -4 -2 -13 -10 -20 -8 -7 -14 -10 -14 -7 0 2 -9 -3 -20
-13 -18 -15 -19 -18 -5 -28 14 -11 14 -12 0 -18 -9 -3 -14 -10 -10 -16 3 -5 1
-18 -4 -29 -9 -16 -7 -20 13 -23 18 -4 26 0 29 14 3 11 15 22 27 25 16 4 18 8
9 14 -11 6 -10 9 4 15 9 3 17 14 18 23 0 12 2 12 6 2 4 -10 7 -11 13 -1 6 10
13 9 30 -3 24 -16 17 -24 -17 -21 -13 0 -23 -3 -23 -8 0 -9 60 -5 78 6 38 23
-12 68 -61 55 -35 -9 -35 -1 1 12 24 9 25 11 9 20 -9 6 -15 14 -12 20 4 5 2 9
-4 9 -5 0 -13 -4 -16 -10z"/>
<path d="M12150 7699 c-13 -9 -12 -10 2 -5 10 3 20 1 23 -4 3 -5 -3 -11 -12
-13 -17 -4 -17 -5 0 -6 10 0 15 -5 12 -11 -9 -14 11 -13 38 3 38 21 50 48 20
46 -12 0 -13 -2 -5 -6 10 -4 9 -8 -5 -18 -10 -7 -22 -11 -26 -8 -5 3 -3 10 4
15 11 8 10 9 -2 5 -9 -3 -21 -1 -25 3 -5 5 -15 5 -24 -1z"/>
<path d="M12350 7560 c0 -5 7 -10 15 -10 8 0 15 5 15 10 0 6 -7 10 -15 10 -8
0 -15 -4 -15 -10z"/>
<path d="M12420 7560 c0 -5 5 -10 10 -10 6 0 10 5 10 10 0 6 -4 10 -10 10 -5
0 -10 -4 -10 -10z"/>
<path d="M12415 7520 c-3 -6 1 -7 9 -4 18 7 21 14 7 14 -6 0 -13 -4 -16 -10z"/>
<path d="M12356 7502 c-3 -5 -16 -7 -28 -5 -13 2 -32 -3 -43 -11 -19 -15 -17
-15 30 -10 51 5 75 17 57 28 -6 3 -13 2 -16 -2z"/>
<path d="M12450 7460 c-8 -5 -12 -11 -9 -14 2 -3 11 -1 19 4 8 5 12 11 9 14
-2 3 -11 1 -19 -4z"/>
<path d="M12293 7443 c-20 -14 -32 -43 -18 -43 15 0 55 34 55 46 0 18 -9 17
-37 -3z"/>
<path d="M12340 7431 c-5 -11 -7 -22 -3 -24 14 -8 38 7 41 26 4 23 -25 22 -38
-2z"/>
<path d="M12350 7341 c0 -5 -6 -11 -12 -14 -7 -2 -3 -2 9 -1 12 2 28 -3 37
-11 20 -21 24 -19 22 9 -1 20 -4 22 -18 15 -12 -6 -18 -6 -18 1 0 5 -4 10 -10
10 -5 0 -10 -4 -10 -9z"/>
<path d="M12430 7325 c-9 -10 -9 -15 -1 -15 6 0 11 4 11 9 0 5 8 12 18 14 14
4 14 5 1 6 -9 0 -22 -6 -29 -14z"/>
<path d="M12452 7304 c-7 -8 -8 -14 -3 -14 10 0 25 19 20 25 -2 1 -10 -3 -17
-11z"/>
<path d="M12210 7250 l-25 -8 25 -1 c20 -1 22 -3 10 -11 -13 -8 -12 -10 3 -10
10 0 17 8 17 20 0 11 -1 20 -2 19 -2 -1 -14 -5 -28 -9z"/>
<path d="M12118 7203 c7 -3 16 -2 19 1 4 3 -2 6 -13 5 -11 0 -14 -3 -6 -6z"/>
<path d="M12145 7190 c-3 -5 1 -10 10 -10 9 0 13 5 10 10 -3 6 -8 10 -10 10
-2 0 -7 -4 -10 -10z"/>
<path d="M12170 7170 c-12 -8 -9 -10 13 -10 15 0 27 5 27 10 0 13 -20 13 -40
0z"/>
<path d="M12287 7154 c-8 -8 1 -24 14 -24 5 0 9 7 9 15 0 15 -12 20 -23 9z"/>
<path d="M12995 7760 c-3 -5 -1 -10 4 -10 6 0 11 5 11 10 0 6 -2 10 -4 10 -3
0 -8 -4 -11 -10z"/>
<path d="M10615 7670 c-3 -5 1 -10 10 -10 9 0 13 5 10 10 -3 6 -8 10 -10 10
-2 0 -7 -4 -10 -10z"/>
<path d="M12755 7600 c-3 -5 1 -10 10 -10 9 0 13 5 10 10 -3 6 -8 10 -10 10
-2 0 -7 -4 -10 -10z"/>
<path d="M14010 7570 c0 -5 9 -10 21 -10 11 0 17 5 14 10 -3 6 -13 10 -21 10
-8 0 -14 -4 -14 -10z"/>
<path d="M11226 7484 c-4 -10 -1 -14 6 -12 15 5 23 28 10 28 -5 0 -13 -7 -16
-16z"/>
<path d="M11220 7425 c0 -8 2 -15 4 -15 2 0 6 7 10 15 3 8 1 15 -4 15 -6 0
-10 -7 -10 -15z"/>
<path d="M11154 7378 c0 -10 1 -18 3 -18 1 0 7 8 12 18 7 13 6 19 -2 19 -7 0
-13 -9 -13 -19z"/>
<path d="M11410 7390 c0 -5 5 -10 10 -10 6 0 10 5 10 10 0 6 -4 10 -10 10 -5
0 -10 -4 -10 -10z"/>
<path d="M11286 7375 c-6 -16 2 -45 13 -45 15 1 43 30 39 41 -6 18 -45 21 -52
4z"/>
<path d="M11217 7365 c-4 -8 -2 -15 3 -15 6 0 10 -7 10 -15 0 -8 8 -15 18 -15
11 0 13 3 5 8 -6 4 -11 16 -10 26 2 23 -18 32 -26 11z"/>
<path d="M11197 7113 c-4 -3 -7 -11 -7 -17 0 -6 5 -5 12 2 6 6 9 14 7 17 -3 3
-9 2 -12 -2z"/>
<path d="M13195 7360 c3 -5 8 -10 11 -10 2 0 4 5 4 10 0 6 -5 10 -11 10 -5 0
-7 -4 -4 -10z"/>
<path d="M13947 7233 c-10 -9 -9 -23 2 -23 5 0 11 7 15 15 5 15 -5 20 -17 8z"/>
<path d="M288 7202 c-6 -66 -1 -73 45 -70 l42 3 -2 45 c-1 25 -2 48 -2 53 -1
4 -19 7 -40 7 -38 0 -39 -1 -43 -38z m19 -4 c-3 -7 -5 -2 -5 12 0 14 2 19 5
13 2 -7 2 -19 0 -25z m53 12 c0 -13 -7 -20 -20 -20 -13 0 -20 7 -20 20 0 13 7
20 20 20 13 0 20 -7 20 -20z m-7 -37 c-7 -2 -19 -2 -25 0 -7 3 -2 5 12 5 14 0
19 -2 13 -5z m7 -23 c0 -5 -9 -10 -20 -10 -11 0 -20 5 -20 10 0 6 9 10 20 10
11 0 20 -4 20 -10z"/>
<path d="M10300 7260 c-9 -6 -10 -10 -3 -10 6 0 15 5 18 10 8 12 4 12 -15 0z"/>
<path d="M10228 7173 c7 -3 16 -2 19 1 4 3 -2 6 -13 5 -11 0 -14 -3 -6 -6z"/>
<path d="M11410 7106 c0 -9 5 -16 10 -16 6 0 10 4 10 9 0 6 -4 13 -10 16 -5 3
-10 -1 -10 -9z"/>
<path d="M10250 7093 c0 -17 19 -37 27 -29 4 5 2 11 -5 13 -6 3 -10 9 -6 14 3
5 0 9 -5 9 -6 0 -11 -3 -11 -7z"/>
<path d="M7095 5340 c3 -5 8 -10 11 -10 2 0 4 5 4 10 0 6 -5 10 -11 10 -5 0
-7 -4 -4 -10z"/>
<path d="M7105 5112 c3 -8 5 -16 5 -18 0 -11 49 -2 60 11 14 16 11 18 -38 19
-23 1 -31 -3 -27 -12z"/>
<path d="M7142 4803 c-1 -46 1 -53 17 -53 17 0 18 3 6 38 -7 20 -15 44 -17 52
-3 8 -6 -9 -6 -37z"/>
<path d="M7100 4824 c1 -11 7 -30 15 -44 l15 -25 -2 33 c-3 36 -28 70 -28 36z"/>
<path d="M7580 4220 c6 -11 13 -20 16 -20 2 0 0 9 -6 20 -6 11 -13 20 -16 20
-2 0 0 -9 6 -20z"/>
<path d="M9727 4203 c-4 -3 -7 -21 -7 -39 0 -18 -6 -34 -12 -37 -15 -5 118
-69 145 -71 13 -1 23 11 33 39 7 22 14 41 14 42 0 2 -31 19 -70 38 -69 35 -91
41 -103 28z"/>
<path d="M10274 3956 c11 -9 24 -16 30 -16 12 0 7 5 -24 19 -24 11 -24 11 -6
-3z"/>
<path d="M10490 3850 c41 -21 80 -39 85 -39 6 0 -24 18 -65 39 -41 21 -79 39
-85 39 -5 0 24 -18 65 -39z"/>
<path d="M10185 3787 c-3 -9 -7 -24 -10 -32 -2 -8 4 -19 15 -25 15 -8 21 -6
31 11 9 18 7 25 -10 42 -18 19 -21 19 -26 4z"/>
<path d="M10710 3745 c47 -24 90 -44 95 -44 6 0 -28 20 -75 44 -47 24 -89 44
-95 44 -5 0 28 -20 75 -44z"/>
<path d="M10377 3688 c-13 -30 -12 -34 7 -45 12 -7 29 -12 39 -13 14 0 17 5
11 23 -24 78 -36 85 -57 35z"/>
<path d="M10940 3635 c47 -24 90 -44 95 -44 6 0 -28 20 -75 44 -47 24 -89 44
-95 44 -5 0 28 -20 75 -44z"/>
<path d="M10571 3594 c-7 -19 -11 -36 -9 -38 28 -17 58 -27 66 -22 19 11 -15
95 -38 96 -4 0 -12 -16 -19 -36z"/>
<path d="M10630 3606 c0 -3 9 -10 20 -16 11 -6 20 -8 20 -6 0 3 -9 10 -20 16
-11 6 -20 8 -20 6z"/>
<path d="M11170 3525 c47 -24 90 -44 95 -44 6 0 -28 20 -75 44 -47 24 -89 44
-95 44 -5 0 28 -20 75 -44z"/>
<path d="M10430 3553 c0 -10 82 -55 87 -49 5 5 -68 56 -79 56 -5 0 -8 -3 -8
-7z"/>
<path d="M10776 3498 c-12 -30 -12 -34 8 -50 27 -22 48 -6 44 36 -5 54 -32 61
-52 14z"/>
<path d="M10836 3502 c-3 -4 4 -9 15 -9 23 -2 25 3 4 10 -8 4 -16 3 -19 -1z"/>
<path d="M11340 3445 c14 -8 30 -14 35 -14 6 0 -1 6 -15 14 -14 8 -29 14 -35
14 -5 0 1 -6 15 -14z"/>
<path d="M10994 3385 c-10 -30 -9 -35 8 -40 10 -4 18 -11 18 -17 0 -6 6 -5 16
3 10 8 14 22 10 40 -4 23 -2 27 12 23 9 -3 6 2 -8 10 -36 22 -44 20 -56 -19z"/>
<path d="M11217 3298 c-2 -13 -7 -30 -11 -39 -5 -11 1 -19 19 -27 34 -16 42
-10 47 32 3 29 0 37 -20 45 -30 14 -29 15 -35 -11z"/>
<path d="M11433 3179 c-9 -35 -8 -40 13 -54 35 -23 53 -11 44 30 -6 28 -5 33
9 28 24 -9 10 2 -25 20 l-30 16 -11 -40z"/>
<path d="M11732 3038 c-2 -18 -5 -34 -7 -36 -6 -7 27 -31 42 -32 17 0 27 39
13 55 -6 8 -9 18 -6 24 5 8 -15 21 -33 21 -4 0 -8 -14 -9 -32z"/>
<path d="M12316 2825 c-9 -26 -7 -32 5 -12 6 10 9 21 6 23 -2 3 -7 -2 -11 -11z"/>
<path d="M12296 2773 c-6 -14 -5 -15 5 -6 7 7 10 15 7 18 -3 3 -9 -2 -12 -12z"/>
<path d="M12221 2393 c-7 -21 -38 -90 -67 -152 -54 -114 -54 -115 -35 -134 24
-24 57 -18 100 18 44 37 54 80 45 183 -4 48 -7 90 -6 95 1 4 -3 7 -9 7 -5 0
-7 5 -4 10 3 6 2 10 -2 10 -5 0 -15 -17 -22 -37z"/>
<path d="M14305 2721 c-3 -5 -1 -12 4 -15 5 -3 11 1 15 9 6 16 -9 21 -19 6z"/>
<path d="M9160 2605 c0 -5 5 -17 10 -25 5 -8 10 -10 10 -5 0 6 -5 17 -10 25
-5 8 -10 11 -10 5z"/>
<path d="M14535 1903 c6 -20 4 -21 -25 -13 -39 11 -39 -4 1 -24 47 -24 66 -1
33 40 -15 19 -15 18 -9 -3z"/>
<path d="M14520 1811 c0 -6 4 -13 10 -16 6 -3 7 1 4 9 -7 18 -14 21 -14 7z"/>
<path d="M14550 1760 c6 -11 13 -20 16 -20 2 0 0 9 -6 20 -6 11 -13 20 -16 20
-2 0 0 -9 6 -20z"/>
<path d="M14616 1702 c4 -37 8 -74 10 -82 1 -8 3 -20 3 -26 1 -6 24 -41 51
-78 58 -76 95 -96 188 -101 57 -4 63 -2 78 21 9 13 18 32 19 42 1 9 7 31 14
47 22 53 25 85 8 85 -8 0 -18 -6 -20 -12 -4 -10 -8 -10 -15 1 -6 8 -15 10 -22
6 -8 -5 -11 -4 -6 3 3 6 2 13 -4 17 -5 3 -10 2 -10 -2 0 -5 -6 -18 -14 -29
-12 -15 -14 -16 -13 -3 3 22 -213 167 -261 175 -11 2 -12 -12 -6 -64z m301
-174 c18 -7 33 -15 33 -19 0 -7 -68 17 -79 27 -8 8 13 4 46 -8z"/>
<path d="M14995 1468 c-76 -86 -84 -94 -120 -123 -28 -22 -29 -25 -14 -40 16
-16 18 -16 36 1 62 60 181 161 196 167 24 9 21 20 -10 43 l-28 20 -60 -68z"/>
<path d="M14410 1776 c0 -2 7 -9 15 -16 13 -11 14 -10 9 4 -5 14 -24 23 -24
12z"/>
<path d="M18098 1473 c7 -3 16 -2 19 1 4 3 -2 6 -13 5 -11 0 -14 -3 -6 -6z"/>
<path d="M18510 1230 c0 -5 5 -10 10 -10 6 0 10 5 10 10 0 6 -4 10 -10 10 -5
0 -10 -4 -10 -10z"/>
<path d="M18515 1201 c-3 -5 -1 -12 5 -16 5 -3 10 1 10 9 0 18 -6 21 -15 7z"/>
<path d="M18240 1199 c0 -24 23 -21 28 4 2 10 -3 17 -12 17 -10 0 -16 -9 -16
-21z"/>
<path d="M18760 1199 c0 -24 23 -21 28 4 2 10 -3 17 -12 17 -10 0 -16 -9 -16
-21z"/>
<path d="M17990 1190 c0 -5 5 -10 10 -10 6 0 10 5 10 10 0 6 -4 10 -10 10 -5
0 -10 -4 -10 -10z"/>
<path d="M18880 1190 c0 -5 5 -10 10 -10 6 0 10 5 10 10 0 6 -4 10 -10 10 -5
0 -10 -4 -10 -10z"/>
<path d="M11005 890 c-3 -5 -1 -10 4 -10 6 0 11 5 11 10 0 6 -2 10 -4 10 -3 0
-8 -4 -11 -10z"/>
<path d="M11125 870 c-3 -5 1 -10 9 -10 9 0 16 5 16 10 0 6 -4 10 -9 10 -6 0
-13 -4 -16 -10z"/>
<path d="M11660 885 c0 -16 6 -25 15 -25 9 0 15 9 15 25 0 16 -6 25 -15 25 -9
0 -15 -9 -15 -25z"/>
<path d="M11780 900 c0 -5 7 -10 15 -10 8 0 15 5 15 10 0 6 -7 10 -15 10 -8 0
-15 -4 -15 -10z"/>
<path d="M12500 885 c0 -16 6 -25 15 -25 9 0 15 9 15 25 0 16 -6 25 -15 25 -9
0 -15 -9 -15 -25z"/>
<path d="M18795 870 c-3 -5 1 -10 9 -10 9 0 16 5 16 10 0 6 -4 10 -9 10 -6 0
-13 -4 -16 -10z"/>
<path d="M18855 890 c-3 -5 -1 -10 4 -10 6 0 11 5 11 10 0 6 -2 10 -4 10 -3 0
-8 -4 -11 -10z"/>
<path d="M18970 885 c0 -16 6 -25 15 -25 9 0 15 9 15 25 0 16 -6 25 -15 25 -9
0 -15 -9 -15 -25z"/>
<path d="M10647 883 c-12 -11 -8 -23 8 -23 8 0 15 7 15 15 0 16 -12 20 -23 8z"/>
<path d="M12147 883 c-12 -11 -8 -23 8 -23 8 0 15 7 15 15 0 16 -12 20 -23 8z"/>
<path d="M12320 874 c0 -17 22 -14 28 4 2 7 -3 12 -12 12 -9 0 -16 -7 -16 -16z"/>
<path d="M18617 883 c-12 -11 -8 -23 8 -23 8 0 15 7 15 15 0 16 -12 20 -23 8z"/>
<path d="M11060 765 c0 -16 6 -25 15 -25 9 0 15 9 15 25 0 16 -6 25 -15 25 -9
0 -15 -9 -15 -25z"/>
<path d="M11780 765 c0 -16 6 -25 15 -25 9 0 15 9 15 25 0 16 -6 25 -15 25 -9
0 -15 -9 -15 -25z"/>
<path d="M12320 765 c0 -16 6 -25 15 -25 9 0 15 9 15 25 0 16 -6 25 -15 25 -9
0 -15 -9 -15 -25z"/>
<path d="M12380 765 c0 -16 6 -25 15 -25 9 0 15 9 15 25 0 16 -6 25 -15 25 -9
0 -15 -9 -15 -25z"/>
<path d="M12440 765 c0 -16 6 -25 15 -25 9 0 15 9 15 25 0 16 -6 25 -15 25 -9
0 -15 -9 -15 -25z"/>
<path d="M18610 754 c0 -9 5 -14 12 -12 18 6 21 28 4 28 -9 0 -16 -7 -16 -16z"/>
<path d="M18795 750 c-3 -5 1 -10 9 -10 9 0 16 5 16 10 0 6 -4 10 -9 10 -6 0
-13 -4 -16 -10z"/>
<path d="M18855 770 c-3 -5 -1 -10 4 -10 6 0 11 5 11 10 0 6 -2 10 -4 10 -3 0
-8 -4 -11 -10z"/>
<path d="M18970 765 c0 -16 6 -25 15 -25 9 0 15 9 15 25 0 16 -6 25 -15 25 -9
0 -15 -9 -15 -25z"/>
<path d="M10640 755 c0 -8 7 -15 15 -15 8 0 15 7 15 15 0 8 -7 15 -15 15 -8 0
-15 -7 -15 -15z"/>
<path d="M11420 755 c0 -8 7 -15 15 -15 8 0 15 7 15 15 0 8 -7 15 -15 15 -8 0
-15 -7 -15 -15z"/>
<path d="M11548 763 c7 -3 16 -2 19 1 4 3 -2 6 -13 5 -11 0 -14 -3 -6 -6z"/>
<path d="M12028 763 c7 -3 16 -2 19 1 4 3 -2 6 -13 5 -11 0 -14 -3 -6 -6z"/>
<path d="M10945 630 c-3 -5 1 -10 9 -10 9 0 16 5 16 10 0 6 -4 10 -9 10 -6 0
-13 -4 -16 -10z"/>
<path d="M11005 650 c-3 -5 -1 -10 4 -10 6 0 11 5 11 10 0 6 -2 10 -4 10 -3 0
-8 -4 -11 -10z"/>
<path d="M11120 645 c0 -16 6 -25 15 -25 9 0 15 9 15 25 0 16 -6 25 -15 25 -9
0 -15 -9 -15 -25z"/>
<path d="M12140 645 c0 -16 6 -25 15 -25 9 0 15 9 15 25 0 16 -6 25 -15 25 -9
0 -15 -9 -15 -25z"/>
<path d="M12920 645 c0 -16 6 -25 15 -25 9 0 15 9 15 25 0 16 -6 25 -15 25 -9
0 -15 -9 -15 -25z"/>
<path d="M13040 660 c0 -5 7 -10 15 -10 8 0 15 5 15 10 0 6 -7 10 -15 10 -8 0
-15 -4 -15 -10z"/>
<path d="M13160 660 c0 -5 7 -10 15 -10 8 0 15 5 15 10 0 6 -7 10 -15 10 -8 0
-15 -4 -15 -10z"/>
<path d="M18910 635 c0 -8 7 -15 15 -15 8 0 15 7 15 15 0 8 -7 15 -15 15 -8 0
-15 -7 -15 -15z"/>
<path d="M630 220 c0 -68 1 -70 25 -70 24 0 25 2 25 70 0 68 -1 70 -25 70 -24
0 -25 -2 -25 -70z"/>
<path d="M800 220 c0 -68 1 -70 25 -70 24 0 25 2 25 70 0 68 -1 70 -25 70 -24
0 -25 -2 -25 -70z"/>
<path d="M1620 220 c0 -68 1 -70 25 -70 24 0 25 2 25 70 0 68 -1 70 -25 70
-24 0 -25 -2 -25 -70z"/>
<path d="M280 251 c0 -10 -8 -21 -18 -23 -24 -7 -24 -38 0 -38 11 0 18 -7 18
-20 0 -15 7 -20 25 -20 18 0 25 5 25 20 0 13 7 20 20 20 12 0 20 7 20 16 0 9
-9 18 -20 21 -11 3 -20 14 -20 24 0 14 -7 19 -25 19 -18 0 -25 -5 -25 -19z"/>
<path d="M1213 274 c-18 -8 -16 -75 2 -101 37 -53 94 -26 102 50 3 26 4 47 2
48 -33 5 -97 7 -106 3z"/>
</g>
</svg>
